<?xml version="1.0" standalone="no"?>
<!DOCTYPE svg PUBLIC "-//W3C//DTD SVG 1.1//EN" "http://www.w3.org/Graphics/SVG/1.1/DTD/svg11.dtd" >
<svg xmlns="http://www.w3.org/2000/svg">
<metadata></metadata>
<defs>
<font id="exo_2regular" horiz-adv-x="570" >
<font-face units-per-em="1000" ascent="800" descent="-200" />
<missing-glyph horiz-adv-x="223" />
<glyph unicode="&#xd;" horiz-adv-x="333" />
<glyph unicode=" "  horiz-adv-x="223" />
<glyph unicode="&#x09;" horiz-adv-x="223" />
<glyph unicode="&#xa0;" horiz-adv-x="223" />
<glyph unicode="!" horiz-adv-x="273" d="M94 389v306h85v-306l-8 -178h-68zM95 32v54q0 18 7 25t24 7h22q17 0 24.5 -7t7.5 -25v-54q0 -18 -7.5 -25t-24.5 -7h-22q-17 0 -24 7t-7 25z" />
<glyph unicode="&#x22;" horiz-adv-x="353" d="M70 690h70l-6 -215h-59zM214 690h69l-5 -215h-58z" />
<glyph unicode="#" horiz-adv-x="685" d="M44 213l11 55h114l32 180h-115l11 55h113l33 187h68l-33 -187h183l33 187h68l-33 -187h111l-11 -55h-109l-32 -180h110l-11 -55h-108l-37 -213h-68l37 213h-183l-37 -213h-68l37 213h-116zM237 268h183l32 180h-183z" />
<glyph unicode="$" horiz-adv-x="564" d="M57 520q0 60 12.5 96.5t43 55t68 24.5t100.5 6h12l7 97h45l-7 -99q83 -3 148 -18l-6 -64q-81 4 -148 5l-17 -238l58 -15q77 -19 108.5 -65t31.5 -129q0 -114 -51.5 -151t-180.5 -37h-2l-9 -115h-46l9 116q-90 4 -166 18l6 67q32 -1 69.5 -2t59 -1.5t38.5 -0.5l18 242 l-64 16q-73 18 -105 64.5t-32 127.5zM146 518q0 -55 19.5 -78t68.5 -35l36 -9l17 227h-2q-44 0 -65 -2t-41 -12t-26.5 -31.5t-6.5 -59.5zM285 70q81 0 109.5 20.5t28.5 87.5q0 57 -19 79.5t-68 34.5l-33 8z" />
<glyph unicode="%" horiz-adv-x="894" d="M47 498q0 111 36 158t124 47q89 0 125 -47t36 -158t-36 -158t-125 -47q-88 0 -124 47t-36 158zM112 498q0 -84 20.5 -117.5t74.5 -33.5t74.5 33t20.5 118q0 84 -20.5 117.5t-74.5 33.5t-74.5 -33.5t-20.5 -117.5zM192 0l447 690h60l-447 -690h-60zM526 196q0 110 36 157 t124 47t124 -47t36 -157q0 -111 -36 -158t-124 -47t-124 47t-36 158zM591 196q-1 -85 19.5 -118.5t74.5 -33.5t75 33.5t21 118.5q0 84 -21 117t-75 33t-74.5 -32.5t-19.5 -117.5z" />
<glyph unicode="&#x26;" horiz-adv-x="772" d="M67 175q0 83 31 129t104 52v4q-61 6 -88 45.5t-27 115.5q0 60 14 95.5t49 54t78.5 24t119.5 5.5q92 0 159 -10l-10 -65q-40 3 -152 3q-99 0 -134 -22t-35 -97q0 -69 29 -93.5t105 -24.5h188l8 128h71v-128h125v-67h-125v-193q0 -35 14.5 -50t49.5 -15h74l10 -62 q-45 -13 -106 -13q-104 0 -120 86q-44 -47 -97 -67t-133 -20q-110 0 -156 41t-46 144zM159 189q0 -70 28 -96.5t102 -26.5q132 1 208 79v179h-191q-83 0 -115 -28.5t-32 -106.5z" />
<glyph unicode="'" horiz-adv-x="209" d="M70 690h70l-6 -215h-59z" />
<glyph unicode="(" horiz-adv-x="359" d="M54 312q0 194 63.5 310t199.5 168l11 -41q-99 -48 -145 -155.5t-46 -280.5q0 -339 191 -437l-11 -41q-136 52 -199.5 168t-63.5 309z" />
<glyph unicode=")" horiz-adv-x="359" d="M32 -124q98 51 144 159t46 278q0 173 -46 280.5t-144 155.5l10 41q136 -52 200 -167.5t64 -310.5q0 -193 -64 -309t-200 -168z" />
<glyph unicode="*" horiz-adv-x="450" d="M54 552l17 49l118 -46v-22l-11 -14zM106 402l100 128l-7 161h52l-8 -161l100 -129l-41 -30l-77 123l-77 -122zM260 533v22l120 46l17 -50l-125 -32z" />
<glyph unicode="+" horiz-adv-x="551" d="M56 267v64h186v176h66v-176h186v-64h-187v-177h-65v177h-186z" />
<glyph unicode="," horiz-adv-x="228" d="M69 28v58q1 32 33 32h25q18 0 24.5 -7t6.5 -25v-64q-1 -85 -35 -154l-40 12q10 59 10 120q-24 0 -24 28z" />
<glyph unicode="-" horiz-adv-x="449" d="M72 220v65h305v-65h-305z" />
<glyph unicode="." horiz-adv-x="229" d="M68 32v54q0 18 7.5 25t24.5 7h28q18 0 25 -7t7 -25v-54q0 -18 -7 -25t-25 -7h-28q-17 0 -24.5 7t-7.5 25z" />
<glyph unicode="/" horiz-adv-x="517" d="M27 -66l393 756h70l-393 -756h-70z" />
<glyph unicode="0" horiz-adv-x="603" d="M64 345q0 192 53 275t184 83t184.5 -83t53.5 -275t-53.5 -275t-184.5 -83t-184 83t-53 275zM150 345q0 -155 33 -218t118 -63t118.5 63t33.5 218t-33.5 218t-118.5 63t-118 -63t-33 -218z" />
<glyph unicode="1" horiz-adv-x="398" d="M22 619l176 71h88v-690h-88v547q0 35 5 60l-169 -53z" />
<glyph unicode="2" horiz-adv-x="562" d="M55 0v55q0 24 13 38l200 226q68 73 98 127.5t28 102.5q-1 47 -31.5 61t-97.5 14q-100 0 -198 -16l-6 68q111 26 210 26q109 0 160.5 -30.5t51.5 -118.5q0 -65 -27 -119.5t-96 -131.5l-198 -221q47 4 112 4h234v-85h-453z" />
<glyph unicode="3" horiz-adv-x="556" d="M52 5l6 71q113 -10 191 -10q84 0 119 30t35 105q0 63 -28.5 95t-108.5 32h-128v69h128q74 1 97.5 34t23.5 92q-1 63 -30 82.5t-111 19.5q-83 0 -175 -8l-7 68q102 18 194 18q116 0 164.5 -35t48.5 -125q0 -154 -101 -174v-4q64 -11 91 -54t29 -119q2 -107 -48.5 -156 t-170.5 -49q-93 0 -219 18z" />
<glyph unicode="4" horiz-adv-x="615" d="M47 276l196 414h87l-193 -408q-8 -20 -0.5 -30.5t25.5 -10.5h237v203l15 114h68v-317h89v-63l-89 -9v-169h-83v169h-286q-42 0 -62.5 34t-3.5 73z" />
<glyph unicode="5" horiz-adv-x="536" d="M52 13l10 71q101 -18 175 -18q92 0 123.5 33t33.5 108q1 32 -3.5 54.5t-19 38t-28 24t-47 14.5t-59.5 8.5t-79 5.5l-46 3q-15 2 -24.5 12.5t-8.5 26.5l16 296h365l-4 -75h-290l-10 -188l74 -6q138 -10 194.5 -57t55.5 -157q0 -36 -5 -65.5t-19.5 -59t-38.5 -49.5 t-64.5 -32.5t-95.5 -12.5q-96 0 -205 25z" />
<glyph unicode="6" horiz-adv-x="572" d="M66 328q0 97 11 163.5t30.5 108t54 64t74 30.5t98.5 8q83 0 139 -15l-8 -64q-44 4 -131 4q-51 0 -81.5 -9t-53.5 -35.5t-33 -75t-12 -129.5q36 40 75.5 56t98.5 16q108 0 148.5 -50t40.5 -177q0 -58 -8 -97.5t-30.5 -72.5t-67 -49t-112.5 -16q-60 0 -99.5 11t-66.5 33 t-41.5 64t-20 96t-5.5 136zM153 315q0 -64 2.5 -101t10.5 -70t24.5 -48.5t42.5 -24t67 -8.5q83 0 108 37t25 123q0 87 -26.5 121.5t-101.5 34.5q-43 0 -76.5 -13.5t-75.5 -50.5z" />
<glyph unicode="7" horiz-adv-x="512" d="M39 690h390q31 0 43 -16t3 -45l-215 -629h-88l194 564q9 27 21 51h-344z" />
<glyph unicode="8" horiz-adv-x="607" d="M69 172q0 86 26 132t88 52v4q-99 11 -99 158q0 98 46.5 140t173.5 42t173 -41.5t46 -140.5q0 -147 -98 -158v-4q62 -6 87.5 -52t25.5 -132q0 -98 -48.5 -139.5t-185.5 -42.5q-135 -1 -185 41t-50 141zM152 190q0 -71 31 -97.5t122 -26.5q89 0 119 26t30 98 q0 82 -28.5 107.5t-119.5 25.5q-94 -1 -124 -27t-30 -106zM165 510q0 -71 27.5 -94t113.5 -23t111.5 23t25.5 94q0 69 -27 94t-111 25t-112 -25t-28 -94z" />
<glyph unicode="9" horiz-adv-x="572" d="M55 465q0 123 50 180t171 57q51 0 86.5 -7t61.5 -25t41 -42t23.5 -66.5t11.5 -89.5t3 -119q0 -116 -14 -187.5t-48.5 -111t-81 -53t-123.5 -13.5q-87 0 -149 15l8 65q48 -4 141 -4q69 0 105.5 20t55 74t21.5 157q-37 -43 -76.5 -59t-99.5 -16q-187 0 -187 225zM139 465 q-1 -79 27 -117t99 -38q44 0 77.5 14t75.5 52q0 54 -1.5 86.5t-6.5 64.5t-14 48t-25 29.5t-39 18t-57 4.5q-81 0 -109 -39t-27 -123z" />
<glyph unicode=":" horiz-adv-x="236" d="M69 32v54q0 18 7.5 25t24.5 7h28q17 0 24.5 -7t7.5 -25v-54q0 -18 -7.5 -25t-24.5 -7h-28q-17 0 -24.5 7t-7.5 25zM69 354v55q0 17 7.5 24t24.5 7h28q17 0 24.5 -7t7.5 -24v-55q0 -18 -7.5 -25t-24.5 -7h-28q-17 0 -24.5 7t-7.5 25z" />
<glyph unicode=";" horiz-adv-x="237" d="M74 28v58q1 18 8.5 25t24.5 7h25q18 0 24.5 -7t6.5 -25v-64q-1 -84 -34 -154l-41 12q10 59 10 120q-24 0 -24 28zM74 354v55q0 17 7 24t24 7h29q17 0 24 -7t7 -24v-55q0 -18 -7 -25t-24 -7h-29q-17 0 -24 7t-7 25z" />
<glyph unicode="&#x3c;" horiz-adv-x="530" d="M53 264v68l406 174v-68l-332 -140l332 -137v-68z" />
<glyph unicode="=" horiz-adv-x="585" d="M74 155v64h438v-64h-438zM74 367v63h438v-63h-438z" />
<glyph unicode="&#x3e;" horiz-adv-x="530" d="M71 93v68l332 137l-332 140v68l406 -174v-68z" />
<glyph unicode="?" horiz-adv-x="505" d="M40 691q7 1 31 5.5t31 5.5l28 4t36 3.5t40 1.5t54 1q202 0 202 -155q0 -35 -13 -65.5t-33 -52t-43 -47t-43 -48.5t-34.5 -58t-15.5 -75h-73q-1 51 15.5 94t40.5 71.5t48.5 54t42 53.5t18.5 58q2 50 -29.5 74t-100.5 24q-85 0 -197 -10zM201 32v54q0 18 7 25t24 7h23 q17 0 24 -7t7 -25v-54q0 -18 -7 -25t-24 -7h-23q-17 0 -24 7t-7 25z" />
<glyph unicode="@" horiz-adv-x="718" d="M75 266q0 76 3 121.5t14 84.5t27.5 58t50.5 33t74.5 17.5t107.5 4.5h143q75 0 113 -33.5t38 -108.5v-311h-64l-8 75q-31 -32 -86.5 -57.5t-112.5 -25.5q-60 0 -95.5 30.5t-35.5 88.5v51q0 49 29.5 76t85.5 27h207v43q0 41 -18.5 57.5t-67.5 16.5h-128q-49 0 -75 -1.5 t-52 -10.5t-36.5 -22.5t-19.5 -44t-11 -68.5t-2 -101q0 -49 1 -81.5t6.5 -61t10.5 -45t20 -30t28 -19.5t41.5 -10t52.5 -4.5t69 -0.5h258v-64q-136 -8 -257 -8q-75 -1 -121 2.5t-84 17t-56 33t-31 60t-16 87t-3 124.5zM324 258q0 -66 66 -66q44 0 93.5 17.5t82.5 48.5v87 l-178 -4q-35 -1 -49.5 -14.5t-14.5 -42.5v-26z" />
<glyph unicode="A" horiz-adv-x="622" d="M10 0l222 666q6 24 33 24h92q27 0 33 -24l222 -666h-91l-68 216h-284l-68 -216h-91zM193 292h236l-87 274q-9 26 -17 56h-28l-17 -56z" />
<glyph unicode="B" horiz-adv-x="620" d="M87 0v690q79 8 224 8q129 0 179.5 -37.5t50.5 -142.5q0 -75 -28 -113.5t-89 -44.5v-4q75 -7 106.5 -52.5t31.5 -131.5q0 -104 -49 -142t-171 -38q-166 0 -255 8zM173 68q41 -1 155 -1q84 0 114.5 24t30.5 96q0 79 -32.5 107t-118.5 30h-149v-256zM173 391h148 q77 1 106 25t29 92q0 69 -31.5 92t-117.5 23h-134v-232z" />
<glyph unicode="C" d="M61 345q0 197 61 277t210 80q107 0 188 -20l-9 -67q-90 9 -179 9q-101 0 -139.5 -60.5t-38.5 -218.5t38.5 -218.5t139.5 -60.5q116 0 193 11l9 -66q-83 -23 -202 -23q-149 0 -210 80t-61 277z" />
<glyph unicode="D" horiz-adv-x="664" d="M87 0v690q130 9 246 9q149 0 209 -77.5t60 -276.5t-60 -276.5t-209 -77.5q-116 0 -246 9zM175 70q90 -2 158 -2q99 0 138 60.5t39 216.5t-39 217t-138 61q-64 0 -158 -2v-551z" />
<glyph unicode="E" horiz-adv-x="560" d="M81 119v452q1 55 36.5 87.5t96.5 32.5q204 0 296 -6l-4 -69h-277q-60 0 -60 -66v-150h298v-71h-298v-189q0 -67 60 -67h277l4 -68q-92 -6 -296 -6q-61 0 -96.5 32.5t-36.5 87.5z" />
<glyph unicode="F" horiz-adv-x="539" d="M85 0v567q0 59 36 91.5t97 32.5q197 0 286 -7l-5 -68h-259q-35 0 -51 -15.5t-16 -50.5v-160h288v-71h-288v-319h-88z" />
<glyph unicode="G" horiz-adv-x="628" d="M62 347q0 203 63 279.5t225 76.5q109 0 192 -21l-9 -66q-84 8 -178 8q-79 0 -119.5 -20.5t-60.5 -81.5t-20 -181q0 -153 33 -215t116 -62q78 0 170 67v268h86v-399h-64l-10 73q-88 -86 -206 -86q-115 0 -166.5 86t-51.5 274z" />
<glyph unicode="H" horiz-adv-x="668" d="M87 0v690h88v-283h318v283h88v-690h-88v331h-318v-331h-88z" />
<glyph unicode="I" horiz-adv-x="262" d="M87 0v690h88v-690h-88z" />
<glyph unicode="J" horiz-adv-x="340" d="M30 4l10 62h50q78 0 78 76v548h88v-545q0 -76 -34.5 -115t-99.5 -39q-56 0 -92 13z" />
<glyph unicode="K" horiz-adv-x="591" d="M87 0v690h87v-216q0 -40 -6 -79h84l210 295h96l-201 -286q-12 -18 -38 -44v-2q28 -27 43 -48l210 -310h-99l-220 324h-85q6 -38 6 -73v-251h-87z" />
<glyph unicode="L" horiz-adv-x="514" d="M85 129v561h87v-550q0 -66 67 -66h249l4 -68q-87 -7 -267 -7q-140 0 -140 130z" />
<glyph unicode="M" horiz-adv-x="877" d="M73 0l27 653q2 37 37 37h100q28 0 37 -30l129 -421q6 -18 15.5 -53.5t10.5 -39.5h18q3 11 11.5 43.5t14.5 51.5l129 419q8 30 38 30h99q36 0 36 -37l29 -653h-88l-25 617h-21l-154 -509q-8 -30 -38 -30h-79q-31 0 -40 30l-154 509h-20l-24 -617h-88z" />
<glyph unicode="N" horiz-adv-x="705" d="M87 0v655q0 35 35 35h83q27 0 39 -28l226 -477q25 -49 47 -100h17q-3 54 -3 105v500h87v-655q0 -35 -34 -35h-86q-27 0 -39 28l-233 489q-34 74 -39 91h-16q4 -40 4 -91v-517h-88z" />
<glyph unicode="O" horiz-adv-x="668" d="M61 345q0 201 60.5 279.5t212.5 78.5t212 -78.5t60 -279.5t-60 -279.5t-212 -78.5t-212.5 78.5t-60.5 279.5zM154 345q0 -158 39 -218.5t141 -60.5t141 60.5t39 218.5t-39 218.5t-141 60.5t-141 -60.5t-39 -218.5z" />
<glyph unicode="P" horiz-adv-x="590" d="M87 0v690q84 9 237 9q126 0 174 -45.5t48 -170.5t-46.5 -170.5t-165.5 -45.5q-82 0 -159 9v-276h-88zM175 343h148q77 1 105.5 29.5t28.5 110.5t-29 111t-105 29q-109 0 -148 -1v-279z" />
<glyph unicode="Q" horiz-adv-x="669" d="M62 345q0 201 60.5 279.5t212.5 78.5t212 -78.5t60 -279.5t-60 -279.5t-212 -78.5t-212.5 78.5t-60.5 279.5zM155 345q0 -158 39 -218.5t141 -60.5q101 0 140.5 60.5t39.5 218.5t-39.5 218.5t-140.5 60.5q-102 0 -141 -60.5t-39 -218.5zM269 -96l25 53q110 -48 265 -70 l-28 -88q-130 26 -262 105z" />
<glyph unicode="R" horiz-adv-x="618" d="M87 0v690q84 9 238 9q123 0 173 -42.5t50 -156.5q0 -85 -29.5 -127t-97.5 -51v-5q28 -7 51 -32.5t34 -66.5l67 -218h-94l-61 216q-13 39 -35 55.5t-57 16.5t-85.5 0.5t-66.5 0.5v-289h-87zM174 364h149q78 1 107 28t29 103q0 75 -29 101.5t-107 26.5q-110 0 -149 -1v-258 z" />
<glyph unicode="S" horiz-adv-x="561" d="M55 520q0 60 12.5 96.5t43 55t68 24.5t100.5 6q122 -2 205 -20l-6 -64q-97 5 -195 5q-44 0 -65 -2t-41 -12t-26.5 -31.5t-6.5 -59.5q0 -55 19.5 -78t67.5 -35l140 -35q77 -19 108 -65t31 -129q0 -114 -51.5 -151t-179.5 -37q-109 0 -214 19l6 65q144 -5 196 -5h15 q82 0 110.5 21t28.5 90q0 57 -19.5 79.5t-67.5 34.5l-143 36q-73 18 -104.5 64.5t-31.5 127.5z" />
<glyph unicode="T" horiz-adv-x="581" d="M24 612v78h533v-78h-223v-612h-88v612h-222z" />
<glyph unicode="U" horiz-adv-x="666" d="M82 264v426h88v-426q0 -111 36 -154.5t127 -43.5q90 0 126.5 43.5t36.5 154.5v426h88v-426q0 -151 -56 -214t-191 -63q-140 0 -197.5 63t-57.5 214z" />
<glyph unicode="V" horiz-adv-x="609" d="M17 690h91l163 -547q14 -50 20 -75h27q10 41 21 76l162 546h91l-209 -665q-9 -25 -34 -25h-89q-27 0 -34 25z" />
<glyph unicode="W" horiz-adv-x="948" d="M31 690h93l108 -538q2 -9 14 -85h23q8 47 16 85l107 509q5 29 34 29h96q27 0 34 -29l107 -509q10 -49 14 -85h25q9 60 13 84l109 539h93l-140 -664q-7 -26 -35 -26h-100q-29 0 -34 27l-108 519q-6 26 -16 78h-21l-15 -78l-107 -519q-7 -27 -35 -27h-101q-13 0 -22.5 7.5 t-11.5 18.5z" />
<glyph unicode="X" horiz-adv-x="611" d="M25 0l194 357l-181 333h95l158 -298h29l158 298h95l-182 -333l195 -357h-96l-172 324h-26l-171 -324h-96z" />
<glyph unicode="Y" horiz-adv-x="569" d="M11 690h94l145 -291q12 -24 31 -78h7q16 44 31 77l145 292h93l-229 -448v-242h-88v243z" />
<glyph unicode="Z" horiz-adv-x="566" d="M48 0v75l368 540h-362v75h458v-75l-366 -540h373v-75h-471z" />
<glyph unicode="[" horiz-adv-x="329" d="M91 -111v825q0 24 15.5 39t38.5 15h143v-56h-102q-14 0 -14 -16v-789q0 -16 14 -16h102v-56h-143q-54 0 -54 54z" />
<glyph unicode="\" horiz-adv-x="518" d="M27 690h71l393 -756h-71z" />
<glyph unicode="]" horiz-adv-x="329" d="M41 -109h101q15 0 15 16v789q0 16 -15 16h-101v56h142q24 0 39 -15t15 -39v-825q0 -24 -15 -39t-39 -15h-142v56z" />
<glyph unicode="^" horiz-adv-x="426" d="M30 390l153 210h61l152 -210l-34 -22l-144 174h-8l-145 -174z" />
<glyph unicode="_" horiz-adv-x="578" d="M70 0h438v-65h-438v65z" />
<glyph unicode="`" horiz-adv-x="315" d="M29 658l48 65l173 -146l-29 -39z" />
<glyph unicode="a" horiz-adv-x="549" d="M51 127v53q0 57 35.5 88.5t99.5 31.5h203v43q0 46 -21 65t-78 19q-72 0 -209 -13l-8 63q134 22 235 22q85 0 126 -35.5t41 -120.5v-343h-67l-10 80q-35 -35 -87.5 -62t-113.5 -27q-67 0 -106.5 35.5t-39.5 100.5zM138 137q0 -38 18 -55.5t58 -17.5h4q36 0 82 18 q48 19 89 55v98h-188q-34 -1 -48.5 -18t-14.5 -49v-31z" />
<glyph unicode="b" d="M76 23v677h85v-182q0 -70 -9 -108q87 89 188 89q91 0 133.5 -59.5t42.5 -194.5q0 -132 -48 -194.5t-168 -62.5q-125 0 -224 35zM161 77q61 -17 124 -17h13q71 1 100 41.5t30 143.5q-1 103 -25 141.5t-93 38.5q-35 0 -67.5 -17t-81.5 -55v-276z" />
<glyph unicode="c" horiz-adv-x="489" d="M54 244q0 141 52.5 198t179.5 57q96 0 157 -23l-11 -55q-66 6 -132 6q-88 0 -122 -39t-34 -144q0 -106 34 -145t122 -39q80 0 143 10l9 -57q-72 -25 -167 -25q-126 0 -178.5 57.5t-52.5 198.5z" />
<glyph unicode="d" horiz-adv-x="573" d="M56 245q0 139 44 196.5t140 57.5q95 0 173 -45q-4 44 -4 96v150h85v-700h-66l-8 70q-93 -82 -193 -82q-90 0 -130.5 63.5t-40.5 193.5zM143 246q0 -105 25.5 -144.5t86.5 -39.5q38 0 69 14.5t85 52.5v269q-96 27 -149 27q-65 0 -91 -37t-26 -142z" />
<glyph unicode="e" horiz-adv-x="537" d="M54 245q0 141 52 197.5t172 56.5q109 0 159 -39.5t50 -119.5q2 -138 -116 -138h-227q7 -84 41 -113t113 -29q83 0 169 12l9 -57q-65 -27 -189 -27q-126 0 -179.5 58.5t-53.5 198.5zM143 268h206q53 0 53 72q-1 47 -28 67t-92 20q-77 0 -107 -33.5t-32 -125.5z" />
<glyph unicode="f" horiz-adv-x="380" d="M28 420v62l88 4v88q0 71 33 107t109 36q84 0 137 -7l-7 -63h-100q-48 0 -67.5 -18.5t-19.5 -63.5v-78h156v-67h-156v-420h-85v420h-88z" />
<glyph unicode="g" horiz-adv-x="558" d="M41 -54q0 43 18 69t61 49q-34 27 -34 70v7q3 48 38 75q-62 33 -62 127q0 84 46.5 120t162.5 36q69 0 113 -12h152l-5 -47l-72 -6q20 -33 20 -90q0 -82 -47 -118.5t-162 -36.5q-56 0 -101 10q-13 -16 -13 -35q0 -7 2 -16q8 -27 45 -33l182 -29q68 -10 95.5 -42.5 t27.5 -94.5q0 -85 -50.5 -118t-181.5 -33q-132 0 -183.5 32.5t-51.5 115.5zM124 -47q0 -51 30 -67t121 -16q89 0 119.5 16.5t30.5 66.5q0 36 -15.5 49t-68.5 21l-166 23q-51 -39 -51 -93zM140 344q0 -49 29 -69.5t101 -20.5t101 20.5t29 69.5t-28.5 69.5t-101.5 20.5 q-72 0 -101 -20.5t-29 -69.5z" />
<glyph unicode="h" horiz-adv-x="581" d="M78 0v700h86v-193q0 -56 -6 -95q118 87 216 87q132 0 132 -134v-365h-86v341q0 48 -15.5 67t-53.5 19q-41 0 -82.5 -18t-105.5 -58v-351h-85z" />
<glyph unicode="i" horiz-adv-x="248" d="M78 611v57q0 26 26 26h40q26 0 26 -26v-57q0 -26 -26 -26h-40q-26 0 -26 26zM82 0v487h84v-487h-84z" />
<glyph unicode="j" horiz-adv-x="250" d="M27 -166q56 69 56 154v499h85v-499q0 -58 -25 -108t-69 -83zM80 611v57q0 26 26 26h40q25 0 25 -26v-57q0 -26 -25 -26h-40q-26 0 -26 26z" />
<glyph unicode="k" horiz-adv-x="509" d="M78 0v700h86v-311q0 -49 -5 -83h64l154 181h99l-153 -179q-15 -21 -34 -33v-2q20 -15 34 -39l169 -234h-99l-169 244h-66q5 -45 5 -78v-166h-85z" />
<glyph unicode="l" horiz-adv-x="297" d="M79 115v585h85v-566q-1 -32 16 -48.5t50 -16.5h47l10 -65q-27 -13 -89 -13q-55 0 -87 32.5t-32 91.5z" />
<glyph unicode="m" horiz-adv-x="876" d="M78 0v487h70l5 -77q103 89 199 89q102 0 123 -86q99 86 196 86q63 0 96.5 -34t33.5 -100v-365h-84v341q-1 45 -18.5 65.5t-57.5 20.5q-35 0 -67.5 -16t-92.5 -60v-351h-82v341q0 46 -18.5 66t-57.5 20q-35 0 -67.5 -16t-92.5 -59v-352h-85z" />
<glyph unicode="n" horiz-adv-x="581" d="M78 0v487h72l6 -77q118 89 218 89q132 0 132 -134v-365h-85v341q0 48 -16 67t-54 19q-40 0 -80.5 -18t-107.5 -59v-350h-85z" />
<glyph unicode="o" horiz-adv-x="568" d="M55 243q0 140 52 198t177 58q126 0 177.5 -58t51.5 -198t-51.5 -198t-177.5 -58q-125 0 -177 58t-52 198zM144 243q0 -106 30 -145t110 -39t110.5 39t30.5 145t-30.5 145t-110.5 39t-110 -39t-30 -145z" />
<glyph unicode="p" horiz-adv-x="580" d="M78 -201v688h70l7 -78q39 42 94 66t108 24q87 0 127 -64t40 -194q0 -138 -44 -195.5t-140 -57.5t-180 50q3 -34 3 -98v-141h-85zM163 92q102 -30 156 -30q66 0 92 37t26 142q0 102 -24.5 143t-83.5 41q-38 0 -75.5 -17.5t-90.5 -57.5v-258z" />
<glyph unicode="q" d="M55 242q0 133 48 195t171 62q120 0 220 -34v-666h-86v167q0 63 8 100q-95 -79 -194 -79q-85 0 -126 61.5t-41 193.5zM142 236q0 -93 23 -133.5t85 -40.5q40 0 74.5 15.5t84.5 50.5v282q-62 17 -123 17h-13q-74 -2 -102.5 -41.5t-28.5 -149.5z" />
<glyph unicode="r" horiz-adv-x="401" d="M78 0v487h66l9 -77q113 89 208 89h22l-10 -80h-28q-37 0 -76.5 -14.5t-105.5 -47.5v-357h-85z" />
<glyph unicode="s" horiz-adv-x="508" d="M50 365q0 81 42 109q40 26 134 25h14q117 -2 205 -15l-7 -62q-152 5 -185 5h-13q-63 0 -84 -9q-23 -10 -23 -53q0 -35 15.5 -48t55.5 -22l142 -32q60 -15 86.5 -44.5t26.5 -89.5q0 -85 -47 -112.5t-161 -27.5q-102 0 -191 14l6 62q71 -4 140 -4h28q85 0 114 13t29 55 q0 33 -17.5 45.5t-59.5 22.5l-140 32q-60 14 -85 45t-25 91z" />
<glyph unicode="t" horiz-adv-x="381" d="M27 420v62l88 4v145h85v-144h155v-67h-155v-286q0 -35 15 -50t51 -15h74l10 -65q-46 -13 -110 -13q-61 0 -93 34t-32 98v297h-88z" />
<glyph unicode="u" d="M75 121v366h85v-342q-1 -46 17 -65t60 -19q37 0 75 16.5t95 53.5v356h85v-487h-68l-6 70q-110 -83 -210 -83q-133 0 -133 134z" />
<glyph unicode="v" horiz-adv-x="530" d="M18 487h91l120 -341q10 -28 29 -85h13l30 85l120 341h90l-178 -466q-8 -21 -30 -21h-77q-22 0 -30 21z" />
<glyph unicode="w" horiz-adv-x="824" d="M25 487h88l101 -359q9 -31 16 -73h13l18 73l81 332q5 27 32 27h77q25 0 32 -28l80 -331q2 -11 8 -35.5t9 -37.5h13q1 5 6.5 31.5t10.5 41.5l101 359h88l-142 -463q-6 -24 -33 -24h-77q-12 0 -21.5 7.5t-11.5 19.5l-80 331q-3 14 -8 39.5t-8 37.5h-12l-17 -77l-79 -331 q-7 -27 -34 -27h-76q-27 0 -33 24z" />
<glyph unicode="x" horiz-adv-x="528" d="M23 0l163 251l-151 236h92l126 -201h23l125 201h92l-151 -236l163 -251h-92l-139 220h-20l-138 -220h-93z" />
<glyph unicode="y" horiz-adv-x="529" d="M18 487h91l129 -363q14 -41 18 -59h14q8 20 21 59l127 363h92l-195 -514q-64 -172 -213 -179l-8 56q57 18 89.5 49.5t52.5 79.5l8 21h-19q-24 0 -30 22z" />
<glyph unicode="z" horiz-adv-x="510" d="M49 0v69l313 348h-310v70h406v-70l-314 -348h317v-69h-412z" />
<glyph unicode="{" horiz-adv-x="319" d="M46 297v62q39 12 48.5 22.5t9.5 54.5v199q0 72 41 106t131 27v-54q-51 0 -70.5 -19t-19.5 -66v-179q1 -61 -17.5 -86t-71.5 -36q55 -17 73.5 -41t19.5 -77v-237q0 -46 19.5 -65t70.5 -19v-54q-90 -7 -131 27t-41 106v256q0 19 -2.5 30t-13 19.5t-17.5 12t-29 11.5z" />
<glyph unicode="|" horiz-adv-x="246" d="M92 -169v950h62v-950h-62z" />
<glyph unicode="}" horiz-adv-x="320" d="M40 -111q51 0 70.5 19t19.5 65v237q1 53 19.5 77t73.5 41q-53 11 -71.5 36t-17.5 86v179q0 47 -19.5 66t-70.5 19v54q90 7 131 -27t41 -106v-199q0 -44 9.5 -54.5t48.5 -22.5v-62q-28 -10 -37.5 -15.5t-17 -19t-7.5 -38.5v-256q0 -72 -41 -106t-131 -27v54z" />
<glyph unicode="~" horiz-adv-x="525" d="M77 228q-7 60 15 91t62 29q37 -2 107 -29t99 -30q26 -3 35.5 9.5t9.5 44.5h44q7 -58 -15 -89t-62 -29q-43 2 -112 29t-94 30q-26 3 -35.5 -10t-9.5 -46h-44z" />
<glyph unicode="&#xa1;" horiz-adv-x="256" d="M86 104l8 178h68l9 -178v-300h-85v300zM86 406v55q0 18 7.5 25t24.5 7h22q17 0 24 -7t7 -25v-55q0 -17 -7 -24t-24 -7h-22q-17 0 -24.5 7t-7.5 24z" />
<glyph unicode="&#xa2;" horiz-adv-x="508" d="M54 349q0 140 52.5 198t178.5 58h6l8 85h46l-8 -87q62 -5 105 -22l-11 -57q-53 6 -101 8l-31 -367q76 0 143 11l9 -57q-72 -25 -159 -25l-9 -94h-45l9 95q-105 7 -149 65.5t-44 188.5zM138 349q0 -92 26 -132.5t90 -48.5l30 364q-82 -3 -114 -42.5t-32 -140.5z" />
<glyph unicode="&#xa3;" horiz-adv-x="569" d="M56 338v50h77l-8 133q-5 110 41 145.5t150 35.5q78 0 179 -10l-5 -70q-71 4 -176 4q-61 0 -83.5 -23t-19.5 -83l8 -132h212l-2 -50h-207l5 -75q3 -71 -13 -114t-59 -77q22 3 67 3h296v-75h-456v75q87 44 78 188l-4 75h-80z" />
<glyph unicode="&#xa4;" horiz-adv-x="594" d="M66 163l72 72q-38 51 -38 116q0 67 40 120l-71 71l37 38l71 -72q53 40 119 40q68 0 120 -41l72 73l38 -38l-73 -72q39 -51 39 -119q0 -65 -40 -118l74 -73l-38 -37l-73 72q-53 -40 -119 -40q-65 0 -118 40l-72 -72zM152 352q0 -60 42.5 -102.5t101.5 -41.5 q59 -1 101 41.5t42 102.5t-42 102.5t-101 42.5t-101.5 -42.5t-42.5 -102.5z" />
<glyph unicode="&#xa5;" horiz-adv-x="618" d="M36 690h91l145 -275q8 -14 20.5 -45t13.5 -33h7q20 49 33 77l144 276h92l-197 -367h146v-52h-173l-5 -8v-53h178v-51h-178v-159h-88v159h-174v51h174v53l-4 8h-169l-1 52h142z" />
<glyph unicode="&#xa6;" horiz-adv-x="248" d="M93 -169v400h62v-400h-62zM93 381v400h62v-400h-62z" />
<glyph unicode="&#xa7;" horiz-adv-x="544" d="M62 575q0 76 47.5 102t150.5 26q124 -2 217 -12l-6 -66q-74 5 -189 5q-47 1 -70 -1.5t-41 -15.5t-18 -40q-1 -33 15.5 -53.5t50.5 -39.5l162 -91q69 -37 88 -95.5t-2 -139.5h-62q5 66 -9.5 104t-59.5 64l-173 99q-52 30 -76.5 63.5t-24.5 90.5zM68 -150l7 67 q96 -6 190 -7q29 0 43.5 0.5t33.5 3.5t28 9.5t15.5 18t6.5 29.5q1 33 -15.5 54t-48.5 39l-162 90q-70 37 -89 94.5t1 139.5h62q-5 -67 9 -103.5t60 -62.5l173 -98q51 -30 76 -64.5t25 -91.5q0 -34 -9.5 -58t-25 -38t-42.5 -22t-53.5 -10t-66.5 -2q-110 2 -218 12z" />
<glyph unicode="&#xa8;" horiz-adv-x="411" d="M80 614v55q0 24 23 24h29q23 0 23 -24v-55q0 -24 -23 -24h-29q-23 0 -23 24zM257 614v55q0 24 24 24h28q24 0 24 -24v-55q0 -24 -24 -24h-28q-24 0 -24 24z" />
<glyph unicode="&#xa9;" horiz-adv-x="836" d="M59 345q0 154 104 256t255 102q152 0 255.5 -101.5t103.5 -256.5t-103.5 -256.5t-255.5 -101.5q-151 0 -255 102t-104 256zM106 345q0 -133 91 -222.5t221 -89.5t221 89t91 223t-91 223t-221 89t-221 -89.5t-91 -222.5zM228 347q0 122 44 171.5t151 49.5q79 0 135 -14 l-8 -48q-64 3 -128 3q-72 0 -99.5 -35t-27.5 -127t27.5 -127t99.5 -35q91 0 140 6l6 -49q-62 -15 -145 -15q-107 0 -151 49.5t-44 170.5z" />
<glyph unicode="&#xaa;" horiz-adv-x="441" d="M64 353v38q0 38 24.5 59.5t68.5 21.5h147v28q0 53 -63 53q-51 0 -155 -8l-7 48q112 14 175 14q57 0 85.5 -25t28.5 -83v-227h-51l-8 61q-67 -67 -147 -67q-45 0 -71.5 22.5t-26.5 64.5zM127 367q0 -46 55 -46q60 0 122 49v65l-127 -8q-50 -3 -50 -42v-18z" />
<glyph unicode="&#xab;" horiz-adv-x="485" d="M44 241v20l161 198l44 -30l-126 -178l127 -182l-44 -30zM226 241v20l160 198l45 -30l-126 -178l127 -182l-45 -30z" />
<glyph unicode="&#xac;" horiz-adv-x="590" d="M74 265v65h438v-198h-66v133h-372z" />
<glyph unicode="&#xad;" horiz-adv-x="448" d="M72 220v65h305v-65h-305z" />
<glyph unicode="&#xae;" horiz-adv-x="553" d="M54 480q0 92 65 157t158 65q92 0 157 -65t65 -157q0 -93 -65 -158t-157 -65q-93 0 -158 65t-65 158zM85 480q0 -80 56 -136.5t136 -56.5q79 0 135 56.5t56 136.5t-56 136.5t-135 56.5t-135.5 -56.5t-56.5 -136.5zM177 351v259q34 3 109 3q56 0 79.5 -16t23.5 -59 q0 -30 -13.5 -45.5t-45.5 -19.5v-2q29 -4 39 -38l30 -82h-42l-28 80q-11 27 -42 27h-70v-107h-40zM217 487h68q36 1 50 11t13 36q1 28 -12.5 37.5t-50.5 9.5h-68v-94z" />
<glyph unicode="&#xaf;" horiz-adv-x="400" d="M61 609v63h278v-63h-278z" />
<glyph unicode="&#xb0;" horiz-adv-x="363" d="M52 576q0 52 38 89.5t92 37.5q53 0 91 -37.5t38 -89.5t-38 -90t-91 -38t-91.5 38t-38.5 90zM106 576q0 -32 22 -54t54 -22q31 0 53 22t22 54t-22 53.5t-53 21.5q-32 0 -54 -21t-22 -54z" />
<glyph unicode="&#xb1;" horiz-adv-x="588" d="M75 70v64h438v-64h-438zM75 327v64h186v133h66v-133h186v-64h-187v-134h-65v134h-186z" />
<glyph unicode="&#xb2;" horiz-adv-x="435" d="M61 360v38q0 17 11 28l129 125q81 79 82 129q1 28 -18.5 36t-62.5 8q-67 0 -133 -8l-4 50q74 15 141 15q80 0 115 -19t35 -76q0 -62 -82 -144l-127 -124q30 3 69 1h157v-59h-312z" />
<glyph unicode="&#xb3;" horiz-adv-x="417" d="M60 363l4 50q59 -5 128 -5q55 0 76.5 16.5t21.5 58.5q0 32 -18.5 50t-68.5 18h-85v50h85q49 1 64.5 19.5t15.5 49.5q-1 33 -20 44.5t-72 11.5q-78 0 -119 -4l-4 49q71 11 132 11q83 0 115 -20.5t32 -75.5q0 -94 -75 -105v-2q47 -6 66 -32t20 -72q2 -65 -32.5 -94 t-117.5 -29q-62 0 -148 11z" />
<glyph unicode="&#xb4;" horiz-adv-x="314" d="M55 577l172 146l49 -65l-192 -120z" />
<glyph unicode="&#xb6;" horiz-adv-x="593" d="M40 450q0 138 70 195t236 57q90 0 151 -17v-685h-65v642q-70 4 -98 4v-856h-65v411q-122 11 -175.5 69t-53.5 180z" />
<glyph unicode="&#xb7;" horiz-adv-x="236" d="M72 230v55q0 17 7.5 24.5t24.5 7.5h28q17 0 24.5 -7.5t7.5 -24.5v-55q0 -17 -7.5 -24t-24.5 -7h-28q-17 0 -24.5 7t-7.5 24z" />
<glyph unicode="&#xb8;" horiz-adv-x="234" d="M34 -229l13 45q41 -1 66.5 18.5t26.5 50.5q1 18 -11 24.5t-48 7.5l9 40q61 6 86.5 -8t24.5 -57q-1 -63 -48 -97t-119 -24z" />
<glyph unicode="&#xb9;" horiz-adv-x="294" d="M34 731l117 43h67v-414h-67v315q0 26 3 39l-111 -29z" />
<glyph unicode="&#xba;" horiz-adv-x="444" d="M59 435q0 95 36.5 133.5t126.5 38.5t126.5 -38.5t36.5 -133.5q0 -94 -36.5 -132.5t-126.5 -38.5t-126.5 38.5t-36.5 132.5zM126 435q0 -68 20.5 -92.5t75.5 -24.5q54 0 74.5 24.5t20.5 92.5q0 69 -20.5 94t-74.5 25t-75 -25.5t-21 -93.5z" />
<glyph unicode="&#xbb;" horiz-adv-x="485" d="M53 69l127 182l-126 178l45 30l160 -198v-20l-161 -202zM234 69l128 182l-127 178l45 30l160 -198v-20l-161 -202z" />
<glyph unicode="&#xbc;" horiz-adv-x="863" d="M38 647l117 43h66v-414h-66v315q0 22 4 39l-113 -29zM137 0l447 690h61l-447 -690h-61zM475.5 114.5q-12.5 17.5 0.5 47.5l127 252h64l-122 -242q-4 -9 1 -15.5t16 -6.5h148v117l12 68h51v-185h48v-47l-48 -5v-98h-63v97h-195q-27 0 -39.5 17.5z" />
<glyph unicode="&#xbd;" horiz-adv-x="887" d="M38 647l117 43h66v-414h-66v315q0 22 4 39l-113 -29zM130 0l448 690h61l-447 -690h-62zM526 0v38q0 18 10 28l129 125q82 80 83 129q0 28 -19.5 36t-62.5 8q-67 0 -132 -8l-4 50q74 15 140 15q80 0 115 -19t35 -76q0 -62 -82 -144l-127 -124q31 3 69 1h157v-59h-311z" />
<glyph unicode="&#xbe;" horiz-adv-x="954" d="M56 277l4 50q59 -5 129 -5q54 0 76 16.5t22 58.5q0 32 -18.5 50t-68.5 18l-86 2v45l86 3q48 1 63.5 19.5t15.5 48.5q0 33 -19.5 45t-72.5 12q-76 0 -119 -4l-4 49q66 10 133 10q83 0 115 -20.5t32 -74.5q0 -94 -76 -105v-2q47 -6 66.5 -32t20.5 -72q2 -65 -32.5 -94 t-117.5 -29q-63 0 -149 11zM238 0l447 690h61l-447 -690h-61zM566.5 114.5q-12.5 17.5 0.5 47.5l127 252h64l-122 -242q-4 -9 1 -15.5t17 -6.5h145v117l11 68h51v-185h51v-47l-51 -5v-98h-62v97h-193q-27 0 -39.5 17.5z" />
<glyph unicode="&#xbf;" horiz-adv-x="500" d="M41 -58q0 41 18 76.5t44.5 62t53 54t45.5 67t21 86.5h73q1 -51 -15.5 -94t-40.5 -71.5t-48.5 -53.5t-42 -54t-18.5 -59q-2 -49 29.5 -72.5t100.5 -23.5q97 0 197 9l5 -61q-7 -1 -31 -5.5t-31 -5.5l-28 -4t-36 -3.5t-40 -1.5t-54 -1q-202 0 -202 155zM218 412v56 q0 17 7 24t25 7h21q18 0 25 -7t7 -24v-56q0 -17 -7 -24t-25 -7h-21q-18 0 -25 7t-7 24z" />
<glyph unicode="&#xc0;" horiz-adv-x="622" d="M10 0l222 666q6 24 33 24h92q27 0 33 -24l222 -666h-91l-68 216h-284l-68 -216h-91zM140 848l49 66l172 -147l-29 -39zM193 292h236l-87 274q-9 26 -17 56h-28l-17 -56z" />
<glyph unicode="&#xc1;" horiz-adv-x="622" d="M10 0l222 666q6 24 33 24h92q27 0 33 -24l222 -666h-91l-68 216h-284l-68 -216h-91zM193 292h236l-87 274q-9 26 -17 56h-28l-17 -56zM246 767l172 147l49 -66l-192 -120z" />
<glyph unicode="&#xc2;" horiz-adv-x="622" d="M10 0l222 666q6 24 33 24h92q27 0 33 -24l222 -666h-91l-68 216h-284l-68 -216h-91zM149 769l131 127h62l132 -127l-30 -37l-129 98h-8l-130 -98zM193 292h236l-87 274q-9 26 -17 56h-28l-17 -56z" />
<glyph unicode="&#xc3;" horiz-adv-x="622" d="M10 0l222 666q6 24 33 24h92q27 0 33 -24l222 -666h-91l-68 216h-284l-68 -216h-91zM153 765q-6 58 16.5 88t61.5 27q32 -3 77.5 -28t72.5 -28t37.5 9t10.5 42h40q6 -56 -16 -85.5t-62 -26.5q-37 3 -83.5 28.5t-66.5 28.5q-28 3 -38 -10t-10 -45h-40zM193 292h236 l-87 274q-9 26 -17 56h-28l-17 -56z" />
<glyph unicode="&#xc4;" horiz-adv-x="622" d="M10 0l222 666q6 24 33 24h92q27 0 33 -24l222 -666h-91l-68 216h-284l-68 -216h-91zM185 791v55q0 24 23 24h29q23 0 23 -24v-55q0 -24 -23 -24h-29q-23 0 -23 24zM193 292h236l-87 274q-9 26 -17 56h-28l-17 -56zM362 791v55q0 24 24 24h28q24 0 24 -24v-55 q0 -24 -24 -24h-28q-24 0 -24 24z" />
<glyph unicode="&#xc5;" horiz-adv-x="622" d="M10 0l222 666q6 24 33 24h92q27 0 33 -24l222 -666h-91l-68 216h-284l-68 -216h-91zM193 292h236l-87 274q-9 26 -17 56h-28l-17 -56zM205 819q0 44 31.5 74.5t75.5 30.5t75.5 -30.5t31.5 -74.5t-31.5 -74t-75.5 -30q-45 0 -76 30t-31 74zM252 819q0 -27 17 -44t43 -17 q25 0 42 17t17 44t-17 44.5t-42 17.5q-26 0 -43 -17t-17 -45z" />
<glyph unicode="&#xc6;" horiz-adv-x="913" d="M-1 0l343 582q35 63 83.5 86t141.5 23q189 0 295 -6l-3 -70h-255q-31 0 -49.5 -18.5t-18.5 -50.5v-146h283v-72h-283v-187q0 -67 68 -67h255l3 -69q-95 -6 -293 -6q-52 0 -84 33.5t-32 86.5v106h-231l-131 -225h-92zM264 298h189v260q0 21 9.5 42t22.5 30h-8 q-29 -16 -58 -63z" />
<glyph unicode="&#xc7;" d="M61 345q0 197 61 277t210 80q107 0 188 -20l-9 -67q-90 9 -179 9q-101 0 -139.5 -60.5t-38.5 -218.5t38.5 -218.5t139.5 -60.5q116 0 193 11l9 -66q-83 -23 -202 -23q-149 0 -210 80t-61 277zM226 -241l13 45q40 -1 65.5 18.5t27.5 50.5q0 18 -12 24.5t-47 7.5l9 40 q61 6 86.5 -8t24.5 -57q-1 -63 -48 -97t-119 -24z" />
<glyph unicode="&#xc8;" horiz-adv-x="560" d="M81 119v452q1 55 36.5 87.5t96.5 32.5q204 0 296 -6l-4 -69h-277q-60 0 -60 -66v-150h298v-71h-298v-189q0 -67 60 -67h277l4 -68q-92 -6 -296 -6q-61 0 -96.5 32.5t-36.5 87.5zM139 869l48 65l173 -146l-30 -39z" />
<glyph unicode="&#xc9;" horiz-adv-x="560" d="M81 119v452q1 55 36.5 87.5t96.5 32.5q204 0 296 -6l-4 -69h-277q-60 0 -60 -66v-150h298v-71h-298v-189q0 -67 60 -67h277l4 -68q-92 -6 -296 -6q-61 0 -96.5 32.5t-36.5 87.5zM244 788l173 146l48 -65l-191 -120z" />
<glyph unicode="&#xca;" horiz-adv-x="560" d="M81 119v452q1 55 36.5 87.5t96.5 32.5q204 0 296 -6l-4 -69h-277q-60 0 -60 -66v-150h298v-71h-298v-189q0 -67 60 -67h277l4 -68q-92 -6 -296 -6q-61 0 -96.5 32.5t-36.5 87.5zM147 790l132 127h61l133 -127l-30 -37l-129 98h-8l-130 -98z" />
<glyph unicode="&#xcb;" horiz-adv-x="560" d="M81 119v452q1 55 36.5 87.5t96.5 32.5q204 0 296 -6l-4 -69h-277q-60 0 -60 -66v-150h298v-71h-298v-189q0 -67 60 -67h277l4 -68q-92 -6 -296 -6q-61 0 -96.5 32.5t-36.5 87.5zM183 812v54q0 24 24 24h29q23 0 23 -24v-54q0 -24 -23 -24h-29q-24 0 -24 24zM360 812v54 q0 24 24 24h29q23 0 23 -24v-54q0 -24 -23 -24h-29q-24 0 -24 24z" />
<glyph unicode="&#xcc;" horiz-adv-x="262" d="M-40 848l48 66l173 -147l-30 -39zM87 0v690h88v-690h-88z" />
<glyph unicode="&#xcd;" horiz-adv-x="262" d="M66 767l172 147l49 -66l-192 -120zM87 0v690h88v-690h-88z" />
<glyph unicode="&#xce;" horiz-adv-x="262" d="M-32 769l132 127h61l133 -127l-30 -37l-129 98h-8l-130 -98zM87 0v690h88v-690h-88z" />
<glyph unicode="&#xcf;" horiz-adv-x="262" d="M4 791v55q0 24 24 24h29q23 0 23 -24v-55q0 -24 -23 -24h-29q-24 0 -24 24zM87 0v690h88v-690h-88zM181 791v55q0 24 24 24h29q23 0 23 -24v-55q0 -24 -23 -24h-29q-24 0 -24 24z" />
<glyph unicode="&#xd0;" horiz-adv-x="669" d="M22 342v49h69v299q130 9 246 9q149 0 209 -77.5t60 -276.5t-60 -276.5t-209 -77.5q-115 0 -246 9v342h-69zM179 70q92 -2 158 -2q100 0 138.5 60t38.5 217t-38.5 217.5t-138.5 60.5q-64 0 -158 -2v-230h152v-49h-152v-272z" />
<glyph unicode="&#xd1;" horiz-adv-x="705" d="M87 0v655q0 35 35 35h83q27 0 39 -28l226 -477q25 -49 47 -100h17q-3 54 -3 105v500h87v-655q0 -35 -34 -35h-86q-27 0 -39 28l-233 489q-34 74 -39 91h-16q4 -40 4 -91v-517h-88zM203 765q-6 58 16.5 88t61.5 27q32 -3 77 -28t72 -28q28 -3 38.5 9t10.5 42h39 q7 -56 -15 -85.5t-63 -26.5q-37 3 -83 28.5t-67 28.5q-27 3 -37.5 -10t-10.5 -45h-39z" />
<glyph unicode="&#xd2;" horiz-adv-x="668" d="M61 345q0 201 60.5 279.5t212.5 78.5t212 -78.5t60 -279.5t-60 -279.5t-212 -78.5t-212.5 78.5t-60.5 279.5zM154 345q0 -158 39 -218.5t141 -60.5t141 60.5t39 218.5t-39 218.5t-141 60.5t-141 -60.5t-39 -218.5zM162 848l49 66l172 -147l-29 -39z" />
<glyph unicode="&#xd3;" horiz-adv-x="668" d="M61 345q0 201 60.5 279.5t212.5 78.5t212 -78.5t60 -279.5t-60 -279.5t-212 -78.5t-212.5 78.5t-60.5 279.5zM154 345q0 -158 39 -218.5t141 -60.5t141 60.5t39 218.5t-39 218.5t-141 60.5t-141 -60.5t-39 -218.5zM268 767l172 147l49 -66l-192 -120z" />
<glyph unicode="&#xd4;" horiz-adv-x="668" d="M61 345q0 201 60.5 279.5t212.5 78.5t212 -78.5t60 -279.5t-60 -279.5t-212 -78.5t-212.5 78.5t-60.5 279.5zM154 345q0 -158 39 -218.5t141 -60.5t141 60.5t39 218.5t-39 218.5t-141 60.5t-141 -60.5t-39 -218.5zM171 769l131 127h62l132 -127l-30 -37l-129 98h-8 l-130 -98z" />
<glyph unicode="&#xd5;" horiz-adv-x="668" d="M61 345q0 201 60.5 279.5t212.5 78.5t212 -78.5t60 -279.5t-60 -279.5t-212 -78.5t-212.5 78.5t-60.5 279.5zM154 345q0 -158 39 -218.5t141 -60.5t141 60.5t39 218.5t-39 218.5t-141 60.5t-141 -60.5t-39 -218.5zM175 765q-6 58 16.5 88t61.5 27q32 -3 77.5 -28 t72.5 -28t37.5 9t10.5 42h40q6 -56 -16 -85.5t-62 -26.5q-37 3 -83.5 28.5t-66.5 28.5q-28 3 -38 -10t-10 -45h-40z" />
<glyph unicode="&#xd6;" horiz-adv-x="668" d="M61 345q0 201 60.5 279.5t212.5 78.5t212 -78.5t60 -279.5t-60 -279.5t-212 -78.5t-212.5 78.5t-60.5 279.5zM154 345q0 -158 39 -218.5t141 -60.5t141 60.5t39 218.5t-39 218.5t-141 60.5t-141 -60.5t-39 -218.5zM207 791v55q0 24 23 24h29q23 0 23 -24v-55 q0 -24 -23 -24h-29q-23 0 -23 24zM384 791v55q0 24 24 24h28q24 0 24 -24v-55q0 -24 -24 -24h-28q-24 0 -24 24z" />
<glyph unicode="&#xd7;" horiz-adv-x="484" d="M46 155l42 -51l356 321l-42 50z" />
<glyph unicode="&#xd8;" horiz-adv-x="668" d="M61 345q0 201 60.5 279.5t212.5 78.5q77 0 128 -19l31 66l46 -19l-33 -69q53 -36 76.5 -112t23.5 -205q0 -201 -60 -279.5t-212 -78.5q-84 0 -134 21l-31 -66l-45 20l32 70q-50 37 -72.5 112t-22.5 201zM154 345q0 -166 44 -225l228 487q-34 17 -92 17q-102 0 -141 -60.5 t-39 -218.5zM236 86q37 -20 98 -20q102 0 141 60.5t39 218.5q0 173 -48 231z" />
<glyph unicode="&#xd9;" horiz-adv-x="666" d="M82 264v426h88v-426q0 -111 36 -154.5t127 -43.5q90 0 126.5 43.5t36.5 154.5v426h88v-426q0 -151 -56 -214t-191 -63q-140 0 -197.5 63t-57.5 214zM163 848l49 66l172 -147l-29 -39z" />
<glyph unicode="&#xda;" horiz-adv-x="666" d="M82 264v426h88v-426q0 -111 36 -154.5t127 -43.5q90 0 126.5 43.5t36.5 154.5v426h88v-426q0 -151 -56 -214t-191 -63q-140 0 -197.5 63t-57.5 214zM269 767l172 147l49 -66l-192 -120z" />
<glyph unicode="&#xdb;" horiz-adv-x="666" d="M82 264v426h88v-426q0 -111 36 -154.5t127 -43.5q90 0 126.5 43.5t36.5 154.5v426h88v-426q0 -151 -56 -214t-191 -63q-140 0 -197.5 63t-57.5 214zM171 769l132 127h62l132 -127l-30 -37l-129 98h-8l-130 -98z" />
<glyph unicode="&#xdc;" horiz-adv-x="666" d="M82 264v426h88v-426q0 -111 36 -154.5t127 -43.5q90 0 126.5 43.5t36.5 154.5v426h88v-426q0 -151 -56 -214t-191 -63q-140 0 -197.5 63t-57.5 214zM208 791v55q0 24 23 24h29q23 0 23 -24v-55q0 -24 -23 -24h-29q-23 0 -23 24zM385 791v55q0 24 24 24h28q24 0 24 -24 v-55q0 -24 -24 -24h-28q-24 0 -24 24z" />
<glyph unicode="&#xdd;" horiz-adv-x="569" d="M11 690h94l145 -291q12 -24 31 -78h7q16 44 31 77l145 292h93l-229 -448v-242h-88v243zM219 767l172 147l49 -66l-192 -120z" />
<glyph unicode="&#xde;" horiz-adv-x="592" d="M87 0v559v131h88v-125q41 2 150 2q125 0 173 -45.5t48 -172.5t-46.5 -172.5t-165.5 -45.5q-82 0 -159 9v-140h-88zM175 207h148q77 1 105.5 29.5t28.5 112.5q0 85 -28.5 114t-105.5 29q-109 0 -148 -1v-284z" />
<glyph unicode="&#xdf;" horiz-adv-x="675" d="M28 419v66l88 1v57q0 57 14.5 93.5t46 54.5t69 24t95.5 6q123 0 174.5 -29t51.5 -103q0 -43 -18 -72t-69 -59q-13 -8 -33.5 -18.5t-29 -16t-19 -14t-14 -18.5t-3.5 -24q0 -24 14.5 -36.5t50.5 -28.5l104 -46q48 -22 68 -49.5t20 -80.5q0 -81 -41.5 -109t-135.5 -28 q-82 0 -160 11l5 64q64 -5 139 -5q64 1 87 13.5t23 57.5q0 31 -14.5 45t-52.5 31l-106 47q-82 38 -82 112q0 16 2.5 29t10.5 24.5t13.5 18.5t20.5 17t21.5 14t27.5 15t27 15q37 21 50.5 39t13.5 49q0 34 -30.5 49.5t-111.5 15.5q-84 0 -114 -23.5t-30 -93.5v-534h-85v419 h-88z" />
<glyph unicode="&#xe0;" horiz-adv-x="549" d="M51 127v53q0 57 35.5 88.5t99.5 31.5h203v43q0 46 -21 65t-78 19q-72 0 -209 -13l-8 63q134 22 235 22q85 0 126 -35.5t41 -120.5v-343h-67l-10 80q-35 -35 -87.5 -62t-113.5 -27q-67 0 -106.5 35.5t-39.5 100.5zM98 669l48 65l173 -147l-29 -39zM138 137q0 -38 18 -55.5 t58 -17.5q38 -1 86.5 18t88.5 55v98h-188q-34 -1 -48.5 -18t-14.5 -49v-31z" />
<glyph unicode="&#xe1;" horiz-adv-x="549" d="M51 127v53q0 57 35.5 88.5t99.5 31.5h203v43q0 46 -21 65t-78 19q-72 0 -209 -13l-8 63q134 22 235 22q85 0 126 -35.5t41 -120.5v-343h-67l-10 80q-35 -35 -87.5 -62t-113.5 -27q-67 0 -106.5 35.5t-39.5 100.5zM138 137q0 -38 18 -55.5t58 -17.5q38 -1 86.5 18t88.5 55 v98h-188q-34 -1 -48.5 -18t-14.5 -49v-31zM204 587l172 147l49 -65l-192 -121z" />
<glyph unicode="&#xe2;" horiz-adv-x="549" d="M51 127v53q0 57 35.5 88.5t99.5 31.5h203v43q0 46 -21 65t-78 19q-72 0 -209 -13l-8 63q134 22 235 22q85 0 126 -35.5t41 -120.5v-343h-67l-10 80q-35 -35 -87.5 -62t-113.5 -27q-67 0 -106.5 35.5t-39.5 100.5zM106 589l132 127h62l132 -127l-30 -37l-129 98h-8 l-130 -98zM138 137q0 -38 18 -55.5t58 -17.5q38 -1 86.5 18t88.5 55v98h-188q-34 -1 -48.5 -18t-14.5 -49v-31z" />
<glyph unicode="&#xe3;" horiz-adv-x="549" d="M51 127v53q0 57 35.5 88.5t99.5 31.5h203v43q0 46 -21 65t-78 19q-72 0 -209 -13l-8 63q134 22 235 22q85 0 126 -35.5t41 -120.5v-343h-67l-10 80q-35 -35 -87.5 -62t-113.5 -27q-67 0 -106.5 35.5t-39.5 100.5zM111 586q-6 57 16.5 87t61.5 27q32 -3 77.5 -28t71.5 -28 q28 -3 38.5 9t10.5 42h40q6 -55 -16 -85t-62 -27q-37 3 -83.5 28.5t-67.5 28.5q-27 3 -37 -10t-10 -44h-40zM138 137q0 -38 18 -55.5t58 -17.5q38 -1 86.5 18t88.5 55v98h-188q-34 -1 -48.5 -18t-14.5 -49v-31z" />
<glyph unicode="&#xe4;" horiz-adv-x="549" d="M51 127v53q0 57 35.5 88.5t99.5 31.5h203v43q0 46 -21 65t-78 19q-72 0 -209 -13l-8 63q134 22 235 22q85 0 126 -35.5t41 -120.5v-343h-67l-10 80q-35 -35 -87.5 -62t-113.5 -27q-67 0 -106.5 35.5t-39.5 100.5zM138 137q0 -38 18 -55.5t58 -17.5q38 -1 86.5 18t88.5 55 v98h-188q-34 -1 -48.5 -18t-14.5 -49v-31zM143 611v55q0 24 23 24h29q23 0 23 -24v-55q0 -24 -23 -24h-29q-23 0 -23 24zM320 611v55q0 24 23 24h29q24 0 24 -24v-55q0 -24 -24 -24h-29q-23 0 -23 24z" />
<glyph unicode="&#xe5;" horiz-adv-x="549" d="M51 127v53q0 57 35.5 88.5t99.5 31.5h203v43q0 46 -21 65t-78 19q-72 0 -209 -13l-8 63q134 22 235 22q85 0 126 -35.5t41 -120.5v-343h-67l-10 80q-35 -35 -87.5 -62t-113.5 -27q-67 0 -106.5 35.5t-39.5 100.5zM138 137q0 -38 18 -55.5t58 -17.5q38 -1 86.5 18t88.5 55 v98h-188q-34 -1 -48.5 -18t-14.5 -49v-31zM162 639q0 45 31 75.5t76 30.5q44 0 75.5 -30.5t31.5 -75.5q0 -44 -31 -74t-76 -30t-76 30t-31 74zM210 639q0 -27 17 -43.5t42 -16.5q26 0 43 16.5t17 43.5t-17 44.5t-43 17.5t-42.5 -17t-16.5 -45z" />
<glyph unicode="&#xe6;" horiz-adv-x="871" d="M51 127v53q0 57 35.5 88.5t99.5 31.5h203v43q0 46 -21 65t-78 19q-72 0 -209 -13l-8 63q134 22 235 22q103 0 139 -50q50 50 165 50q109 0 159 -39.5t51 -119.5q0 -138 -127 -138h-216q6 -84 40 -113t113 -29q83 0 170 12l8 -57q-64 -27 -189 -27q-84 0 -134 24.5 t-74 80.5q-35 -39 -92 -70.5t-124 -31.5t-106.5 35.5t-39.5 100.5zM138 137q0 -38 18 -55.5t58 -17.5q41 -1 91.5 19.5t92.5 58.5q-9 40 -9 93h-188q-34 -1 -48.5 -18t-14.5 -49v-31zM477 268h196q65 0 63 72q0 46 -27.5 66.5t-92.5 20.5q-76 0 -106.5 -34t-32.5 -125z" />
<glyph unicode="&#xe7;" horiz-adv-x="489" d="M54 244q0 141 52.5 198t179.5 57q96 0 157 -23l-11 -55q-66 6 -132 6q-88 0 -122 -39t-34 -144q0 -106 34 -145t122 -39q80 0 143 10l9 -57q-72 -25 -167 -25q-126 0 -178.5 57.5t-52.5 198.5zM179 -241l14 45q40 -1 65.5 18.5t26.5 50.5q1 18 -11 24.5t-48 7.5l9 40 q61 6 87 -8t25 -57q-2 -63 -49 -97t-119 -24z" />
<glyph unicode="&#xe8;" horiz-adv-x="537" d="M54 245q0 141 52 197.5t172 56.5q109 0 159 -39.5t50 -119.5q2 -138 -116 -138h-227q7 -84 41 -113t113 -29q83 0 169 12l9 -57q-65 -27 -189 -27q-126 0 -179.5 58.5t-53.5 198.5zM109 669l48 65l173 -147l-30 -39zM143 268h206q53 0 53 72q-1 47 -28 67t-92 20 q-77 0 -107 -33.5t-32 -125.5z" />
<glyph unicode="&#xe9;" horiz-adv-x="537" d="M54 245q0 141 52 197.5t172 56.5q109 0 159 -39.5t50 -119.5q2 -138 -116 -138h-227q7 -84 41 -113t113 -29q83 0 169 12l9 -57q-65 -27 -189 -27q-126 0 -179.5 58.5t-53.5 198.5zM143 268h206q53 0 53 72q-1 47 -28 67t-92 20q-77 0 -107 -33.5t-32 -125.5zM214 587 l173 147l48 -65l-191 -121z" />
<glyph unicode="&#xea;" horiz-adv-x="537" d="M54 245q0 141 52 197.5t172 56.5q109 0 159 -39.5t50 -119.5q2 -138 -116 -138h-227q7 -84 41 -113t113 -29q83 0 169 12l9 -57q-65 -27 -189 -27q-126 0 -179.5 58.5t-53.5 198.5zM117 589l132 127h61l133 -127l-30 -37l-130 98h-8l-129 -98zM143 268h206q53 0 53 72 q-1 47 -28 67t-92 20q-77 0 -107 -33.5t-32 -125.5z" />
<glyph unicode="&#xeb;" horiz-adv-x="537" d="M54 245q0 141 52 197.5t172 56.5q109 0 159 -39.5t50 -119.5q2 -138 -116 -138h-227q7 -84 41 -113t113 -29q83 0 169 12l9 -57q-65 -27 -189 -27q-126 0 -179.5 58.5t-53.5 198.5zM143 268h206q53 0 53 72q-1 47 -28 67t-92 20q-77 0 -107 -33.5t-32 -125.5zM153 611v55 q0 24 23 24h29q24 0 24 -24v-55q0 -24 -24 -24h-29q-23 0 -23 24zM330 611v55q0 24 24 24h28q24 0 24 -24v-55q0 -24 -24 -24h-28q-24 0 -24 24z" />
<glyph unicode="&#xec;" horiz-adv-x="249" d="M-46 669l48 65l173 -147l-30 -39zM82 0v487h85v-487h-85z" />
<glyph unicode="&#xed;" horiz-adv-x="249" d="M60 587l172 147l49 -65l-192 -121zM82 0v487h85v-487h-85z" />
<glyph unicode="&#xee;" horiz-adv-x="249" d="M-38 589l132 127h61l133 -127l-30 -37l-129 98h-8l-130 -98zM82 0v487h85v-487h-85z" />
<glyph unicode="&#xef;" horiz-adv-x="249" d="M-2 611v55q0 24 24 24h29q23 0 23 -24v-55q0 -24 -23 -24h-29q-24 0 -24 24zM82 0v487h85v-487h-85zM175 611v55q0 24 24 24h29q23 0 23 -24v-55q0 -24 -23 -24h-29q-24 0 -24 24z" />
<glyph unicode="&#xf0;" horiz-adv-x="559" d="M55 219q0 114 47.5 171.5t157.5 57.5q79 0 137 -36q-21 110 -80 164l-78 -60l-31 38l67 52q-62 34 -156 30l10 62q121 5 206 -46l78 60l30 -39l-67 -52q119 -104 119 -338q0 -71 -9 -121.5t-32.5 -92t-68 -62t-110.5 -20.5q-113 0 -166.5 55.5t-53.5 176.5zM145 219 q0 -87 31 -123.5t100 -36.5q42 0 68.5 14t40 46t18 69.5t4.5 98.5q0 24 -2 66q-62 24 -132 24t-99 -39.5t-29 -118.5z" />
<glyph unicode="&#xf1;" horiz-adv-x="581" d="M78 0v487h72l6 -77q118 89 218 89q132 0 132 -134v-365h-85v341q0 48 -16 67t-54 19q-40 0 -80.5 -18t-107.5 -59v-350h-85zM139 586q-6 57 16.5 87t61.5 27q32 -3 77.5 -28t72.5 -28t37.5 9t10.5 42h40q6 -55 -16 -85t-62 -27q-37 3 -83.5 28.5t-66.5 28.5 q-27 3 -37.5 -10t-10.5 -44h-40z" />
<glyph unicode="&#xf2;" horiz-adv-x="568" d="M55 243q0 140 52 198t177 58q126 0 177.5 -58t51.5 -198t-51.5 -198t-177.5 -58q-125 0 -177 58t-52 198zM112 669l49 65l172 -147l-29 -39zM144 243q0 -106 30 -145t110 -39t110.5 39t30.5 145t-30.5 145t-110.5 39t-110 -39t-30 -145z" />
<glyph unicode="&#xf3;" horiz-adv-x="568" d="M55 243q0 140 52 198t177 58q126 0 177.5 -58t51.5 -198t-51.5 -198t-177.5 -58q-125 0 -177 58t-52 198zM144 243q0 -106 30 -145t110 -39t110.5 39t30.5 145t-30.5 145t-110.5 39t-110 -39t-30 -145zM218 587l172 147l49 -65l-192 -121z" />
<glyph unicode="&#xf4;" horiz-adv-x="568" d="M55 243q0 140 52 198t177 58q126 0 177.5 -58t51.5 -198t-51.5 -198t-177.5 -58q-125 0 -177 58t-52 198zM120 589l132 127h62l132 -127l-30 -37l-129 98h-8l-130 -98zM144 243q0 -106 30 -145t110 -39t110.5 39t30.5 145t-30.5 145t-110.5 39t-110 -39t-30 -145z" />
<glyph unicode="&#xf5;" horiz-adv-x="568" d="M55 243q0 140 52 198t177 58q126 0 177.5 -58t51.5 -198t-51.5 -198t-177.5 -58q-125 0 -177 58t-52 198zM125 586q-6 57 16.5 87t61.5 27q32 -3 77.5 -28t72.5 -28t37.5 9t10.5 42h40q6 -55 -16 -85t-62 -27q-37 3 -83.5 28.5t-66.5 28.5q-27 3 -37.5 -10t-10.5 -44h-40 zM144 243q0 -106 30 -145t110 -39t110.5 39t30.5 145t-30.5 145t-110.5 39t-110 -39t-30 -145z" />
<glyph unicode="&#xf6;" horiz-adv-x="568" d="M55 243q0 140 52 198t177 58q126 0 177.5 -58t51.5 -198t-51.5 -198t-177.5 -58q-125 0 -177 58t-52 198zM144 243q0 -106 30 -145t110 -39t110.5 39t30.5 145t-30.5 145t-110.5 39t-110 -39t-30 -145zM157 611v55q0 24 23 24h29q23 0 23 -24v-55q0 -24 -23 -24h-29 q-23 0 -23 24zM334 611v55q0 24 24 24h28q24 0 24 -24v-55q0 -24 -24 -24h-28q-24 0 -24 24z" />
<glyph unicode="&#xf7;" horiz-adv-x="571" d="M66 263v64h438v-64h-438zM242 96v48q0 18 6.5 25t24.5 7h22q17 0 24.5 -7t7.5 -25v-48q0 -18 -7.5 -25t-24.5 -7h-22q-18 0 -24.5 7t-6.5 25zM242 444v49q0 18 6.5 25t24.5 7h22q17 0 24.5 -7.5t7.5 -24.5v-49q0 -17 -7.5 -24t-24.5 -7h-22q-18 0 -24.5 7t-6.5 24z" />
<glyph unicode="&#xf8;" horiz-adv-x="568" d="M55 243q0 140 52 198t177 58q55 0 88 -8l33 69l39 -19l-30 -65q53 -24 76 -80t23 -153q0 -140 -51.5 -198t-177.5 -58q-56 0 -93 10l-34 -72l-39 19l32 68q-50 26 -72.5 81.5t-22.5 149.5zM144 243q0 -120 40 -156l156 335q-20 5 -56 5q-80 0 -110 -39t-30 -145zM223 66 q24 -7 61 -7q80 0 110.5 39t30.5 145q0 125 -45 160z" />
<glyph unicode="&#xf9;" d="M75 121v366h85v-342q-1 -46 17 -65t60 -19q37 0 75 16.5t95 53.5v356h85v-487h-68l-6 70q-110 -83 -210 -83q-133 0 -133 134zM116 672l49 65l172 -146l-29 -39z" />
<glyph unicode="&#xfa;" d="M75 121v366h85v-342q-1 -46 17 -65t60 -19q37 0 75 16.5t95 53.5v356h85v-487h-68l-6 70q-110 -83 -210 -83q-133 0 -133 134zM222 591l172 146l49 -65l-192 -120z" />
<glyph unicode="&#xfb;" d="M75 121v366h85v-342q-1 -46 17 -65t60 -19q37 0 75 16.5t95 53.5v356h85v-487h-68l-6 70q-110 -83 -210 -83q-133 0 -133 134zM124 593l132 127h62l132 -127l-30 -37l-129 98h-8l-130 -98z" />
<glyph unicode="&#xfc;" d="M75 121v366h85v-342q-1 -46 17 -65t60 -19q37 0 75 16.5t95 53.5v356h85v-487h-68l-6 70q-110 -83 -210 -83q-133 0 -133 134zM161 615v55q0 24 23 24h29q23 0 23 -24v-55q0 -24 -23 -24h-29q-23 0 -23 24zM338 615v55q0 24 24 24h28q24 0 24 -24v-55q0 -24 -24 -24h-28 q-24 0 -24 24z" />
<glyph unicode="&#xfd;" horiz-adv-x="529" d="M18 487h91l129 -363q14 -41 18 -59h14q8 20 21 59l127 363h92l-195 -514q-64 -172 -213 -179l-8 56q57 18 89.5 49.5t52.5 79.5l8 21h-19q-24 0 -30 22zM201 587l173 147l48 -65l-191 -121z" />
<glyph unicode="&#xfe;" horiz-adv-x="574" d="M78 -201v901h85v-170q0 -66 -3 -100q87 69 182 69q94 0 134.5 -61t40.5 -198q0 -139 -41.5 -196t-136.5 -57q-93 0 -178 44q2 -31 2 -91v-141h-85zM163 94q91 -36 149 -36q65 0 91 39.5t26 143.5t-26 144.5t-88 40.5q-63 0 -152 -67v-265z" />
<glyph unicode="&#xff;" horiz-adv-x="529" d="M18 487h91l129 -363q14 -41 18 -59h14q8 20 21 59l127 363h92l-195 -514q-64 -172 -213 -179l-8 56q57 18 89.5 49.5t52.5 79.5l8 21h-19q-24 0 -30 22zM140 611v55q0 24 23 24h29q24 0 24 -24v-55q0 -24 -24 -24h-29q-23 0 -23 24zM317 611v55q0 24 24 24h28 q24 0 24 -24v-55q0 -24 -24 -24h-28q-24 0 -24 24z" />
<glyph unicode="&#x100;" horiz-adv-x="622" d="M10 0l222 666q6 24 33 24h92q27 0 33 -24l222 -666h-91l-68 216h-284l-68 -216h-91zM172 786v63h279v-63h-279zM193 292h236l-87 274q-9 26 -17 56h-28l-17 -56z" />
<glyph unicode="&#x101;" horiz-adv-x="549" d="M51 127v53q0 57 35.5 88.5t99.5 31.5h203v43q0 46 -21 65t-78 19q-72 0 -209 -13l-8 63q134 22 235 22q85 0 126 -35.5t41 -120.5v-343h-67l-10 80q-35 -35 -87.5 -62t-113.5 -27q-67 0 -106.5 35.5t-39.5 100.5zM130 606v63h279v-63h-279zM138 137q0 -38 18 -55.5 t58 -17.5q38 -1 86.5 18t88.5 55v98h-188q-34 -1 -48.5 -18t-14.5 -49v-31z" />
<glyph unicode="&#x102;" horiz-adv-x="622" d="M10 0l222 666q6 24 33 24h92q27 0 33 -24l222 -666h-91l-68 216h-284l-68 -216h-91zM161 877l44 7q-1 -36 27 -55.5t80 -19.5q50 0 77.5 19.5t27.5 55.5l44 -7q4 -59 -37 -95t-113 -36t-113 36t-37 95zM193 292h236l-87 274q-9 26 -17 56h-28l-17 -56z" />
<glyph unicode="&#x103;" horiz-adv-x="549" d="M51 127v53q0 57 35.5 88.5t99.5 31.5h203v43q0 46 -21 65t-78 19q-72 0 -209 -13l-8 63q134 22 235 22q85 0 126 -35.5t41 -120.5v-343h-67l-10 80q-35 -35 -87.5 -62t-113.5 -27q-67 0 -106.5 35.5t-39.5 100.5zM119 697l43 7q0 -36 27.5 -55.5t79.5 -19.5q50 0 78 19.5 t27 55.5l44 -7q4 -58 -37 -94.5t-112 -36.5q-72 0 -113.5 36.5t-36.5 94.5zM138 137q0 -38 18 -55.5t58 -17.5q38 -1 86.5 18t88.5 55v98h-188q-34 -1 -48.5 -18t-14.5 -49v-31z" />
<glyph unicode="&#x104;" horiz-adv-x="622" d="M10 0l222 666q6 24 33 24h92q27 0 33 -24l222 -666q-54 -61 -74 -114q-15 -36 7.5 -48t70.5 4l10 -35q-92 -35 -130.5 -8.5t-17.5 84.5q19 58 93 117h-50l-68 216h-284l-68 -216h-91zM193 292h236l-87 274q-9 26 -17 56h-28l-17 -56z" />
<glyph unicode="&#x105;" horiz-adv-x="549" d="M51 127v53q0 57 35.5 88.5t99.5 31.5h203v43q0 46 -21 65t-78 19q-72 0 -209 -13l-8 63q134 22 235 22q85 0 126 -35.5t41 -120.5v-343q-54 -61 -74 -114q-15 -36 7.5 -48t70.5 4l10 -35q-45 -19 -79.5 -20.5t-51 12t-22.5 35.5t5 49q19 58 93 117h-26l-10 80 q-35 -35 -87.5 -62t-113.5 -27q-67 0 -106.5 35.5t-39.5 100.5zM138 137q0 -38 18 -55.5t58 -17.5q38 -1 86.5 18t88.5 55v98h-188q-34 -1 -48.5 -18t-14.5 -49v-31z" />
<glyph unicode="&#x106;" d="M61 345q0 197 61 277t210 80q107 0 188 -20l-9 -67q-90 9 -179 9q-101 0 -139.5 -60.5t-38.5 -218.5t38.5 -218.5t139.5 -60.5q116 0 193 11l9 -66q-83 -23 -202 -23q-149 0 -210 80t-61 277zM255 767l172 147l49 -66l-192 -120z" />
<glyph unicode="&#x107;" horiz-adv-x="489" d="M54 244q0 141 52.5 198t179.5 57q96 0 157 -23l-11 -55q-66 6 -132 6q-88 0 -122 -39t-34 -144q0 -106 34 -145t122 -39q80 0 143 10l9 -57q-72 -25 -167 -25q-126 0 -178.5 57.5t-52.5 198.5zM202 587l173 147l48 -65l-191 -121z" />
<glyph unicode="&#x10a;" d="M61 345q0 197 61 277t210 80q107 0 188 -20l-9 -67q-90 9 -179 9q-101 0 -139.5 -60.5t-38.5 -218.5t38.5 -218.5t139.5 -60.5q116 0 193 11l9 -66q-83 -23 -202 -23q-149 0 -210 80t-61 277zM281 785v56q0 26 26 26h27q26 0 26 -26v-56q0 -26 -26 -26h-27q-26 0 -26 26z " />
<glyph unicode="&#x10b;" horiz-adv-x="489" d="M54 244q0 141 52.5 198t179.5 57q96 0 157 -23l-11 -55q-66 6 -132 6q-88 0 -122 -39t-34 -144q0 -106 34 -145t122 -39q80 0 143 10l9 -57q-72 -25 -167 -25q-126 0 -178.5 57.5t-52.5 198.5zM228 605v57q0 25 26 25h28q26 0 26 -25v-57q0 -26 -26 -26h-28q-26 0 -26 26 z" />
<glyph unicode="&#x10c;" d="M61 345q0 197 61 277t210 80q107 0 188 -20l-9 -67q-90 9 -179 9q-101 0 -139.5 -60.5t-38.5 -218.5t38.5 -218.5t139.5 -60.5q116 0 193 11l9 -66q-83 -23 -202 -23q-149 0 -210 80t-61 277zM159 871l29 37l129 -87h8l130 87l30 -37l-144 -127h-39z" />
<glyph unicode="&#x10d;" horiz-adv-x="489" d="M54 244q0 141 52.5 198t179.5 57q96 0 157 -23l-11 -55q-66 6 -132 6q-88 0 -122 -39t-34 -144q0 -106 34 -145t122 -39q80 0 143 10l9 -57q-72 -25 -167 -25q-126 0 -178.5 57.5t-52.5 198.5zM106 691l29 37l130 -87h8l129 87l30 -37l-143 -127h-40z" />
<glyph unicode="&#x10e;" horiz-adv-x="664" d="M87 0v690q130 9 246 9q149 0 209 -77.5t60 -276.5t-60 -276.5t-209 -77.5q-116 0 -246 9zM156 871l29 37l130 -87h8l129 87l31 -37l-144 -127h-40zM175 70q90 -2 158 -2q99 0 138 60.5t39 216.5t-39 217t-138 61q-64 0 -158 -2v-551z" />
<glyph unicode="&#x10f;" horiz-adv-x="573" d="M56 245q0 139 44 196.5t140 57.5q95 0 173 -45q-4 44 -4 96v150h85v-700h-66l-8 70q-93 -82 -193 -82q-90 0 -130.5 63.5t-40.5 193.5zM143 246q0 -105 25.5 -144.5t86.5 -39.5q38 0 69 14.5t85 52.5v269q-96 27 -149 27q-65 0 -91 -37t-26 -142zM553 631v47q1 25 30 25 h22q16 0 22 -5.5t6 -19.5v-51q-1 -67 -31 -123l-37 10q9 48 9 95q-21 0 -21 22z" />
<glyph unicode="&#x110;" horiz-adv-x="669" d="M22 342v49h69v299q130 9 246 9q149 0 209 -77.5t60 -276.5t-60 -276.5t-209 -77.5q-115 0 -246 9v342h-69zM179 70q92 -2 158 -2q100 0 138.5 60t38.5 217t-38.5 217.5t-138.5 60.5q-64 0 -158 -2v-230h152v-49h-152v-272z" />
<glyph unicode="&#x111;" horiz-adv-x="568" d="M56 245q0 139 44 196.5t140 57.5q95 0 173 -45q-4 44 -4 96v23h-153v49h153v78h85v-78h68v-49h-68v-573h-66l-8 70q-93 -82 -193 -82q-90 0 -130.5 63.5t-40.5 193.5zM143 246q0 -105 25.5 -144.5t86.5 -39.5q38 0 69 14.5t85 52.5v269q-96 27 -149 27q-65 0 -91 -37 t-26 -142z" />
<glyph unicode="&#x112;" horiz-adv-x="560" d="M81 119v452q1 55 36.5 87.5t96.5 32.5q204 0 296 -6l-4 -69h-277q-60 0 -60 -66v-150h298v-71h-298v-189q0 -67 60 -67h277l4 -68q-92 -6 -296 -6q-61 0 -96.5 32.5t-36.5 87.5zM171 806v64h278v-64h-278z" />
<glyph unicode="&#x113;" horiz-adv-x="537" d="M54 245q0 141 52 197.5t172 56.5q109 0 159 -39.5t50 -119.5q2 -138 -116 -138h-227q7 -84 41 -113t113 -29q83 0 169 12l9 -57q-65 -27 -189 -27q-126 0 -179.5 58.5t-53.5 198.5zM140 606v63h279v-63h-279zM143 268h206q53 0 53 72q-1 47 -28 67t-92 20 q-77 0 -107 -33.5t-32 -125.5z" />
<glyph unicode="&#x116;" horiz-adv-x="560" d="M81 119v452q1 55 36.5 87.5t96.5 32.5q204 0 296 -6l-4 -69h-277q-60 0 -60 -66v-150h298v-71h-298v-189q0 -67 60 -67h277l4 -68q-92 -6 -296 -6q-61 0 -96.5 32.5t-36.5 87.5zM270 805v57q0 26 26 26h28q26 0 26 -26v-57q0 -26 -26 -26h-28q-26 0 -26 26z" />
<glyph unicode="&#x117;" horiz-adv-x="537" d="M54 245q0 141 52 197.5t172 56.5q109 0 159 -39.5t50 -119.5q2 -138 -116 -138h-227q7 -84 41 -113t113 -29q83 0 169 12l9 -57q-65 -27 -189 -27q-126 0 -179.5 58.5t-53.5 198.5zM143 268h206q53 0 53 72q-1 47 -28 67t-92 20q-77 0 -107 -33.5t-32 -125.5zM240 605v57 q0 25 26 25h28q26 0 26 -25v-57q0 -26 -26 -26h-28q-26 0 -26 26z" />
<glyph unicode="&#x118;" horiz-adv-x="560" d="M81 119v452q1 55 36.5 87.5t96.5 32.5q204 0 296 -6l-4 -69h-277q-60 0 -60 -66v-150h298v-71h-298v-189q0 -67 60 -67h277l4 -68q-54 -59 -74 -113q-15 -37 7.5 -48.5t70.5 4.5l10 -36q-92 -34 -130.5 -7.5t-17.5 83.5q20 58 90 115q-81 -4 -252 -4q-61 0 -96.5 32.5 t-36.5 87.5z" />
<glyph unicode="&#x119;" horiz-adv-x="537" d="M54 245q0 141 52 197.5t172 56.5q109 0 159 -39.5t50 -119.5q2 -138 -116 -138h-227q7 -84 41 -113t113 -29q83 0 169 12l9 -57q-54 -59 -74 -113q-15 -37 7.5 -48.5t70.5 4.5l10 -36q-93 -34 -131 -7.5t-17 83.5q18 51 73 101q-58 -11 -128 -11q-126 0 -179.5 58.5 t-53.5 198.5zM143 268h206q53 0 53 72q-1 47 -28 67t-92 20q-77 0 -107 -33.5t-32 -125.5z" />
<glyph unicode="&#x11a;" horiz-adv-x="560" d="M81 119v452q1 55 36.5 87.5t96.5 32.5q204 0 296 -6l-4 -69h-277q-60 0 -60 -66v-150h298v-71h-298v-189q0 -67 60 -67h277l4 -68q-92 -6 -296 -6q-61 0 -96.5 32.5t-36.5 87.5zM148 892l29 37l130 -88h8l129 88l30 -37l-143 -127h-40z" />
<glyph unicode="&#x11b;" horiz-adv-x="537" d="M54 245q0 141 52 197.5t172 56.5q109 0 159 -39.5t50 -119.5q2 -138 -116 -138h-227q7 -84 41 -113t113 -29q83 0 169 12l9 -57q-65 -27 -189 -27q-126 0 -179.5 58.5t-53.5 198.5zM118 691l29 37l130 -87h8l129 87l30 -37l-143 -127h-40zM143 268h206q53 0 53 72 q-1 47 -28 67t-92 20q-77 0 -107 -33.5t-32 -125.5z" />
<glyph unicode="&#x11e;" horiz-adv-x="628" d="M62 347q0 203 63 279.5t225 76.5q109 0 192 -21l-9 -66q-84 8 -178 8q-79 0 -119.5 -20.5t-60.5 -81.5t-20 -181q0 -153 33 -215t116 -62q78 0 170 67v268h86v-399h-64l-10 73q-88 -86 -206 -86q-115 0 -166.5 86t-51.5 274zM177 877l44 7q0 -36 27.5 -55.5t79.5 -19.5 q50 0 77.5 19.5t27.5 55.5l44 -7q4 -59 -36.5 -95t-112.5 -36t-113.5 36t-37.5 95z" />
<glyph unicode="&#x11f;" horiz-adv-x="558" d="M41 -54q0 43 18 69t61 49q-37 29 -34 77t38 75q-62 33 -62 127q0 84 46.5 120t162.5 36q69 0 113 -12h152l-5 -47l-72 -6q20 -33 20 -90q0 -82 -47 -118.5t-162 -36.5q-56 0 -101 10q-19 -23 -11 -50.5t45 -33.5l182 -29q68 -10 95.5 -42.5t27.5 -94.5q0 -85 -50.5 -118 t-181.5 -33q-132 0 -183.5 32.5t-51.5 115.5zM122 697l43 7q0 -36 27.5 -55.5t79.5 -19.5q50 0 78 19.5t27 55.5l44 -7q4 -58 -37 -94.5t-112 -36.5q-72 0 -113.5 36.5t-36.5 94.5zM124 -47q0 -51 30 -67t121 -16q89 0 119.5 16.5t30.5 66.5q0 36 -15.5 49t-68.5 21l-166 23 q-51 -39 -51 -93zM140 344q0 -49 29 -69.5t101 -20.5t101 20.5t29 69.5t-28.5 69.5t-101.5 20.5q-72 0 -101 -20.5t-29 -69.5z" />
<glyph unicode="&#x120;" horiz-adv-x="628" d="M62 347q0 203 63 279.5t225 76.5q109 0 192 -21l-9 -66q-84 8 -178 8q-79 0 -119.5 -20.5t-60.5 -81.5t-20 -181q0 -153 33 -215t116 -62q78 0 170 67v268h86v-399h-64l-10 73q-88 -86 -206 -86q-115 0 -166.5 86t-51.5 274zM288 785v56q0 26 26 26h27q26 0 26 -26v-56 q0 -26 -26 -26h-27q-26 0 -26 26z" />
<glyph unicode="&#x121;" horiz-adv-x="558" d="M41 -54q0 43 18 69t61 49q-37 29 -34 77t38 75q-62 33 -62 127q0 84 46.5 120t162.5 36q69 0 113 -12h152l-5 -47l-72 -6q20 -33 20 -90q0 -82 -47 -118.5t-162 -36.5q-56 0 -101 10q-19 -23 -11 -50.5t45 -33.5l182 -29q68 -10 95.5 -42.5t27.5 -94.5q0 -85 -50.5 -118 t-181.5 -33q-132 0 -183.5 32.5t-51.5 115.5zM124 -47q0 -51 30 -67t121 -16q89 0 119.5 16.5t30.5 66.5q0 36 -15.5 49t-68.5 21l-166 23q-51 -39 -51 -93zM140 344q0 -49 29 -69.5t101 -20.5t101 20.5t29 69.5t-28.5 69.5t-101.5 20.5q-72 0 -101 -20.5t-29 -69.5z M233 605v57q0 25 25 25h28q26 0 26 -25v-57q0 -26 -26 -26h-28q-25 0 -25 26z" />
<glyph unicode="&#x122;" horiz-adv-x="628" d="M62 347q0 203 63 279.5t225 76.5q109 0 192 -21l-9 -66q-84 8 -178 8q-79 0 -119.5 -20.5t-60.5 -81.5t-20 -181q0 -153 33 -215t116 -62q78 0 170 67v268h86v-399h-64l-10 73q-88 -86 -206 -86q-115 0 -166.5 86t-51.5 274zM284 -86q1 28 30 28h23q16 0 22 -6.5t6 -21.5 v-55q-1 -72 -32 -132l-36 10q9 52 9 103q-22 0 -22 24v50z" />
<glyph unicode="&#x123;" horiz-adv-x="558" d="M41 -54q0 43 18 69t61 49q-37 29 -34 77t38 75q-62 33 -62 127q0 84 46.5 120t162.5 36q69 0 113 -12h152l-5 -47l-72 -6q20 -33 20 -90q0 -82 -47 -118.5t-162 -36.5q-56 0 -101 10q-19 -23 -11 -50.5t45 -33.5l182 -29q68 -10 95.5 -42.5t27.5 -94.5q0 -85 -50.5 -118 t-181.5 -33q-132 0 -183.5 32.5t-51.5 115.5zM124 -47q0 -51 30 -67t121 -16q89 0 119.5 16.5t30.5 66.5q0 36 -15.5 49t-68.5 21l-166 23q-51 -39 -51 -93zM140 344q0 -49 29 -69.5t101 -20.5t101 20.5t29 69.5t-28.5 69.5t-101.5 20.5q-72 0 -101 -20.5t-29 -69.5z M244 584v55q2 74 32 132l37 -9q-9 -45 -9 -103q21 0 21 -24v-51q-1 -27 -30 -27h-23q-16 0 -22 6t-6 21z" />
<glyph unicode="&#x126;" horiz-adv-x="676" d="M20 519v47h71v124h88v-124h318v124h88v-124h70v-47h-70v-519h-88v331h-318v-331h-88v519h-71zM179 407h318v112h-318v-112z" />
<glyph unicode="&#x127;" horiz-adv-x="585" d="M6 573v49h76v78h86v-78h145v-49h-145v-66q0 -56 -6 -95q118 87 216 87q132 0 132 -134v-365h-86v341q0 48 -15.5 67t-53.5 19q-41 0 -82.5 -18t-105.5 -58v-351h-85v573h-76z" />
<glyph unicode="&#x12a;" horiz-adv-x="262" d="M-8 786v63h279v-63h-279zM87 0v690h88v-690h-88z" />
<glyph unicode="&#x12b;" horiz-adv-x="249" d="M-14 606v63h279v-63h-279zM82 0v487h85v-487h-85z" />
<glyph unicode="&#x12e;" horiz-adv-x="262" d="M31 -117q21 59 93 117h-37v690h88v-690h-10q-53 -63 -74 -114q-15 -36 7.5 -48t70.5 4l11 -35q-93 -35 -131.5 -8.5t-17.5 84.5z" />
<glyph unicode="&#x12f;" horiz-adv-x="249" d="M22 -166q-6 22 5 49q19 58 93 117h-38v487h85v-487h-6q-54 -61 -74 -114q-15 -36 7.5 -48t70.5 4l10 -35q-45 -19 -79.5 -20.5t-51 12t-22.5 35.5zM85 605v57q0 25 26 25h28q26 0 26 -25v-57q0 -26 -26 -26h-28q-26 0 -26 26z" />
<glyph unicode="&#x130;" horiz-adv-x="262" d="M87 0v690h88v-690h-88zM91 785v56q0 26 26 26h28q26 0 26 -26v-56q0 -26 -26 -26h-28q-26 0 -26 26z" />
<glyph unicode="&#x131;" horiz-adv-x="249" d="M82 0v487h85v-487h-85z" />
<glyph unicode="&#x132;" horiz-adv-x="602" d="M87 0v690h88v-690h-88zM292 4l9 62h50q79 0 79 76v548h88v-545q0 -75 -34.5 -114.5t-99.5 -39.5q-56 0 -92 13z" />
<glyph unicode="&#x133;" horiz-adv-x="498" d="M78 611v57q0 26 26 26h40q26 0 26 -26v-57q0 -26 -26 -26h-40q-26 0 -26 26zM82 0v487h84v-487h-84zM275 -166q56 69 56 154v499h85v-499q0 -58 -25 -108t-68 -83zM328 611v57q0 26 26 26h40q26 0 26 -26v-57q0 -26 -26 -26h-40q-26 0 -26 26z" />
<glyph unicode="&#x136;" horiz-adv-x="591" d="M87 0v690h87v-216q0 -40 -6 -79h84l210 295h96l-201 -286q-12 -18 -38 -44v-2q28 -27 43 -48l210 -310h-99l-220 324h-85q6 -38 6 -73v-251h-87zM274 -86q1 28 30 28h22q16 0 22.5 -6.5t6.5 -21.5v-55q-1 -69 -32 -132l-37 10q9 52 9 103q-10 0 -16 6.5t-5 17.5v50z" />
<glyph unicode="&#x137;" horiz-adv-x="509" d="M78 0v700h86v-311q0 -49 -5 -83h64l154 181h99l-153 -179q-15 -21 -34 -33v-2q20 -15 34 -39l169 -234h-99l-169 244h-66q5 -45 5 -78v-166h-85zM235 -86q1 28 30 28h23q16 0 22 -6.5t6 -21.5v-55q-1 -72 -32 -132l-36 10q9 52 9 103q-22 0 -22 24v50z" />
<glyph unicode="&#x139;" horiz-adv-x="514" d="M65 767l172 147l49 -66l-192 -120zM85 129v561h87v-550q0 -66 67 -66h249l4 -68q-87 -7 -267 -7q-140 0 -140 130z" />
<glyph unicode="&#x13a;" horiz-adv-x="297" d="M59 789l172 146l49 -65l-192 -121zM79 115v585h85v-566q-1 -32 16 -48.5t50 -16.5h47l10 -65q-27 -13 -89 -13q-55 0 -87 32.5t-32 91.5z" />
<glyph unicode="&#x13b;" horiz-adv-x="514" d="M85 129v561h87v-550q0 -66 67 -66h249l4 -68q-87 -7 -267 -7q-140 0 -140 130zM255 -88q1 27 30 27h23q16 0 22 -6t6 -21v-55q-2 -74 -32 -132l-36 10q9 52 9 103q-22 0 -22 23v51z" />
<glyph unicode="&#x13c;" horiz-adv-x="297" d="M79 115v585h85v-566q-1 -32 16 -48.5t50 -16.5h47l10 -65q-27 -13 -89 -13q-55 0 -87 32.5t-32 91.5zM132 -88q1 27 30 27h22q16 0 22.5 -6t6.5 -21v-55q-1 -71 -32 -132l-37 10q9 53 9 103q-10 0 -16 6.5t-5 16.5v51z" />
<glyph unicode="&#x13d;" horiz-adv-x="514" d="M85 129v561h87v-550q0 -66 67 -66h249l4 -68q-87 -7 -267 -7q-140 0 -140 130zM290 614v50q1 27 30 27h22q16 0 22.5 -6t6.5 -21v-55q-1 -69 -32 -132l-37 10q9 53 9 103q-10 0 -16 6.5t-5 17.5z" />
<glyph unicode="&#x13e;" horiz-adv-x="297" d="M79 115v585h85v-566q-1 -32 16 -48.5t50 -16.5h47l10 -65q-27 -13 -89 -13q-55 0 -87 32.5t-32 91.5zM223 631v47q1 25 30 25h22q16 0 22 -5.5t6 -19.5v-51q-1 -67 -31 -123l-36 10q8 43 8 95q-21 0 -21 22z" />
<glyph unicode="&#x13f;" horiz-adv-x="514" d="M85 129v561h87v-550q0 -66 67 -66h249l4 -68q-87 -7 -267 -7q-140 0 -140 130zM350 364v57q0 26 25 26h28q26 0 26 -26v-57q0 -26 -26 -26h-28q-25 0 -25 26z" />
<glyph unicode="&#x140;" horiz-adv-x="322" d="M79 115v585h85v-566q-1 -32 16 -48.5t50 -16.5h47l10 -65q-27 -13 -89 -13q-55 0 -87 32.5t-32 91.5zM239 361v57q0 26 26 26h28q26 0 26 -26v-57q0 -26 -26 -26h-28q-26 0 -26 26z" />
<glyph unicode="&#x141;" horiz-adv-x="520" d="M20 305v55l71 29v301h88v-264l115 48v-54l-115 -48v-232q0 -34 15.5 -50t50.5 -16h250l3 -68q-87 -7 -267 -7q-140 0 -140 130v206z" />
<glyph unicode="&#x142;" horiz-adv-x="328" d="M21 301v55l80 33v311h85v-275l108 45v-55l-109 -45v-236q0 -65 66 -65h48l10 -65q-27 -13 -89 -13q-55 0 -87 32.5t-32 91.5v219z" />
<glyph unicode="&#x143;" horiz-adv-x="705" d="M87 0v655q0 35 35 35h83q27 0 39 -28l226 -477q25 -49 47 -100h17q-3 54 -3 105v500h87v-655q0 -35 -34 -35h-86q-27 0 -39 28l-233 489q-34 74 -39 91h-16q4 -40 4 -91v-517h-88zM295 767l173 147l48 -66l-191 -120z" />
<glyph unicode="&#x144;" horiz-adv-x="581" d="M78 0v487h72l6 -77q118 89 218 89q132 0 132 -134v-365h-85v341q0 48 -16 67t-54 19q-40 0 -80.5 -18t-107.5 -59v-350h-85zM232 587l172 147l49 -65l-192 -121z" />
<glyph unicode="&#x145;" horiz-adv-x="705" d="M87 0v655q0 35 35 35h83q27 0 39 -28l226 -477q25 -49 47 -100h17q-3 54 -3 105v500h87v-655q0 -35 -34 -35h-86q-27 0 -39 28l-233 489q-34 74 -39 91h-16q4 -40 4 -91v-517h-88zM299 -86q1 28 30 28h22q16 0 22.5 -6.5t6.5 -21.5v-55q-1 -69 -32 -132l-37 10 q9 52 9 103q-10 0 -16 6.5t-5 17.5v50z" />
<glyph unicode="&#x146;" horiz-adv-x="581" d="M78 0v487h72l6 -77q118 89 218 89q132 0 132 -134v-365h-85v341q0 48 -16 67t-54 19q-40 0 -80.5 -18t-107.5 -59v-350h-85zM250 -86q1 28 30 28h23q16 0 22 -6.5t6 -21.5v-55q-1 -69 -32 -132l-37 10q9 52 9 103q-10 0 -16 6.5t-5 17.5v50z" />
<glyph unicode="&#x147;" horiz-adv-x="705" d="M87 0v655q0 35 35 35h83q27 0 39 -28l226 -477q25 -49 47 -100h17q-3 54 -3 105v500h87v-655q0 -35 -34 -35h-86q-27 0 -39 28l-233 489q-34 74 -39 91h-16q4 -40 4 -91v-517h-88zM199 871l29 37l130 -87h8l129 87l30 -37l-143 -127h-40z" />
<glyph unicode="&#x148;" horiz-adv-x="581" d="M78 0v487h72l6 -77q118 89 218 89q132 0 132 -134v-365h-85v341q0 48 -16 67t-54 19q-40 0 -80.5 -18t-107.5 -59v-350h-85zM136 691l29 37l129 -87h8l130 87l30 -37l-144 -127h-40z" />
<glyph unicode="&#x14a;" horiz-adv-x="705" d="M87 0v655q0 35 35 35h67q25 0 40 -28l241 -462q19 -37 47 -100h17q-4 68 -4 102v488h88v-769q0 -66 -36 -102t-99 -35q-52 0 -88 12l9 56h49q82 0 82 76v72h-35q-14 0 -26 25l-248 477q-18 35 -41 92h-14q4 -31 4 -93v-501h-88z" />
<glyph unicode="&#x14b;" horiz-adv-x="581" d="M78 0v487h66l8 -80q117 92 221 92q133 0 133 -134v-433q0 -67 -31.5 -102.5t-92.5 -34.5q-42 0 -86 13l10 54h43q72 0 72 77v402q0 43 -16.5 61.5t-55.5 18.5q-67 0 -186 -71v-350h-85z" />
<glyph unicode="&#x14c;" horiz-adv-x="668" d="M61 345q0 201 60.5 279.5t212.5 78.5t212 -78.5t60 -279.5t-60 -279.5t-212 -78.5t-212.5 78.5t-60.5 279.5zM154 345q0 -158 39 -218.5t141 -60.5t141 60.5t39 218.5t-39 218.5t-141 60.5t-141 -60.5t-39 -218.5zM194 786v63h279v-63h-279z" />
<glyph unicode="&#x14d;" horiz-adv-x="568" d="M55 243q0 140 52 198t177 58q126 0 177.5 -58t51.5 -198t-51.5 -198t-177.5 -58q-125 0 -177 58t-52 198zM144 243q0 -106 30 -145t110 -39t110.5 39t30.5 145t-30.5 145t-110.5 39t-110 -39t-30 -145zM144 606v63h279v-63h-279z" />
<glyph unicode="&#x150;" horiz-adv-x="668" d="M61 345q0 201 60.5 279.5t212.5 78.5t212 -78.5t60 -279.5t-60 -279.5t-212 -78.5t-212.5 78.5t-60.5 279.5zM154 345q0 -158 39 -218.5t141 -60.5t141 60.5t39 218.5t-39 218.5t-141 60.5t-141 -60.5t-39 -218.5zM202 750l110 174l62 -42l-134 -160zM366 750l110 174 l62 -42l-134 -160z" />
<glyph unicode="&#x151;" horiz-adv-x="568" d="M55 243q0 140 52 198t177 58q126 0 177.5 -58t51.5 -198t-51.5 -198t-177.5 -58q-125 0 -177 58t-52 198zM144 243q0 -106 30 -145t110 -39t110.5 39t30.5 145t-30.5 145t-110.5 39t-110 -39t-30 -145zM152 571l110 173l62 -42l-135 -160zM316 571l110 173l62 -42 l-134 -160z" />
<glyph unicode="&#x152;" horiz-adv-x="913" d="M61 345q0 201 60.5 279.5t212.5 78.5q90 0 168 -32q31 20 71 20q199 0 289 -6l-3 -69h-257q-67 0 -67 -66v-150h284v-72h-284v-188q0 -35 16 -51t51 -16h257l3 -68q-92 -6 -296 -6q-40 0 -69 21q-75 -33 -163 -33q-152 0 -212.5 78.5t-60.5 279.5zM154 345 q0 -158 39 -218.5t141 -60.5q69 0 120 16q-7 20 -7 47v432q0 24 8 48q-60 15 -121 15q-102 0 -141 -60t-39 -219z" />
<glyph unicode="&#x153;" horiz-adv-x="907" d="M55 243q0 140 52 198t177 58q133 0 184 -65q48 65 175 65q213 0 215 -150q0 -81 -34.5 -112t-117.5 -31h-192q6 -86 40.5 -116t114.5 -30q82 0 168 12l8 -57q-64 -27 -189 -27q-135 0 -186 67q-51 -68 -186 -68q-125 0 -177 58t-52 198zM144 243q0 -106 30 -145t110 -39 q76 0 107 35t34 127l-1 26v22q-3 90 -33.5 124t-106.5 34q-80 0 -110 -39t-30 -145zM513 269h188q41 0 57 18t14 63q-4 77 -127 77q-72 0 -101 -34.5t-31 -123.5z" />
<glyph unicode="&#x154;" horiz-adv-x="618" d="M87 0v690q84 9 238 9q123 0 173 -42.5t50 -156.5q0 -85 -29.5 -127t-97.5 -51v-5q28 -7 51 -32.5t34 -66.5l67 -218h-94l-61 216q-13 39 -35 55.5t-57 16.5t-85.5 0.5t-66.5 0.5v-289h-87zM174 364h149q78 1 107 28t29 103q0 75 -29 101.5t-107 26.5q-110 0 -149 -1v-258 zM237 767l173 147l48 -66l-191 -120z" />
<glyph unicode="&#x155;" horiz-adv-x="401" d="M78 0v487h66l9 -77q113 89 208 89h22l-10 -80h-28q-37 0 -76.5 -14.5t-105.5 -47.5v-357h-85zM162 587l172 147l49 -65l-192 -121z" />
<glyph unicode="&#x156;" horiz-adv-x="618" d="M87 0v690q84 9 238 9q123 0 173 -42.5t50 -156.5q0 -85 -29.5 -127t-97.5 -51v-5q28 -7 51 -32.5t34 -66.5l67 -218h-94l-61 216q-13 39 -35 55.5t-57 16.5t-85.5 0.5t-66.5 0.5v-289h-87zM174 364h149q78 1 107 28t29 103q0 75 -29 101.5t-107 26.5q-110 0 -149 -1v-258 zM287 -86q1 28 30 28h23q16 0 22 -6.5t6 -21.5v-55q-1 -72 -32 -132l-36 10q9 52 9 103q-22 0 -22 24v50z" />
<glyph unicode="&#x157;" horiz-adv-x="401" d="M72 -86q1 28 30 28h23q16 0 22 -6.5t6 -21.5v-55q-1 -69 -32 -132l-37 10q9 52 9 103q-10 0 -16 6.5t-5 17.5v50zM78 0v487h66l9 -77q113 89 208 89h22l-10 -80h-28q-37 0 -76.5 -14.5t-105.5 -47.5v-357h-85z" />
<glyph unicode="&#x158;" horiz-adv-x="618" d="M87 0v690q84 9 238 9q123 0 173 -42.5t50 -156.5q0 -85 -29.5 -127t-97.5 -51v-5q28 -7 51 -32.5t34 -66.5l67 -218h-94l-61 216q-13 39 -35 55.5t-57 16.5t-85.5 0.5t-66.5 0.5v-289h-87zM141 871l29 37l130 -87h8l129 87l30 -37l-143 -127h-40zM174 364h149 q78 1 107 28t29 103q0 75 -29 101.5t-107 26.5q-110 0 -149 -1v-258z" />
<glyph unicode="&#x159;" horiz-adv-x="401" d="M66 691l29 37l129 -87h8l130 87l30 -37l-144 -127h-39zM78 0v487h66l9 -77q113 89 208 89h22l-10 -80h-28q-37 0 -76.5 -14.5t-105.5 -47.5v-357h-85z" />
<glyph unicode="&#x15a;" horiz-adv-x="561" d="M55 520q0 60 12.5 96.5t43 55t68 24.5t100.5 6q122 -2 205 -20l-6 -64q-97 5 -195 5q-44 0 -65 -2t-41 -12t-26.5 -31.5t-6.5 -59.5q0 -55 19.5 -78t67.5 -35l140 -35q77 -19 108 -65t31 -129q0 -114 -51.5 -151t-179.5 -37q-109 0 -214 19l6 65q168 -6 211 -5 q82 0 110.5 21t28.5 90q0 57 -19.5 79.5t-67.5 34.5l-143 36q-73 18 -104.5 64.5t-31.5 127.5zM213 767l172 147l49 -66l-192 -120z" />
<glyph unicode="&#x15b;" horiz-adv-x="508" d="M50 365q0 81 42.5 108.5t147.5 25.5q117 -2 205 -15l-7 -62q-152 5 -185 5q-74 1 -97 -9t-23 -53q0 -35 15.5 -48t55.5 -22l142 -32q60 -15 86.5 -44.5t26.5 -89.5q0 -85 -47 -112.5t-161 -27.5q-102 0 -191 14l6 62q85 -5 168 -4q85 0 114 13t29 55q0 33 -17.5 45.5 t-59.5 22.5l-140 32q-60 14 -85 45t-25 91zM193 587l172 147l49 -65l-192 -121z" />
<glyph unicode="&#x15e;" horiz-adv-x="561" d="M55 520q0 60 12.5 96.5t43 55t68 24.5t100.5 6q122 -2 205 -20l-6 -64q-97 5 -195 5q-44 0 -65 -2t-41 -12t-26.5 -31.5t-6.5 -59.5q0 -55 19.5 -78t67.5 -35l140 -35q77 -19 108 -65t31 -129q0 -114 -51.5 -151t-179.5 -37q-109 0 -214 19l6 65q168 -6 211 -5 q82 0 110.5 21t28.5 90q0 57 -19.5 79.5t-67.5 34.5l-143 36q-73 18 -104.5 64.5t-31.5 127.5zM185 -241l13 45q40 -1 65.5 18.5t27.5 51.5q0 18 -12 24.5t-47 6.5l9 40q61 6 86.5 -7.5t24.5 -57.5q-1 -63 -48 -96.5t-119 -24.5z" />
<glyph unicode="&#x15f;" horiz-adv-x="508" d="M50 365q0 81 42.5 108.5t147.5 25.5q117 -2 205 -15l-7 -62q-152 5 -185 5q-74 1 -97 -9t-23 -53q0 -35 15.5 -48t55.5 -22l142 -32q60 -15 86.5 -44.5t26.5 -89.5q0 -85 -47 -112.5t-161 -27.5q-102 0 -191 14l6 62q85 -5 168 -4q85 0 114 13t29 55q0 33 -17.5 45.5 t-59.5 22.5l-140 32q-60 14 -85 45t-25 91zM150 -240l13 45q41 -1 66.5 18.5t26.5 50.5q1 18 -11 24.5t-48 7.5l9 40q61 6 86.5 -8t24.5 -57q-1 -63 -48 -97t-119 -24z" />
<glyph unicode="&#x160;" horiz-adv-x="561" d="M55 520q0 60 12.5 96.5t43 55t68 24.5t100.5 6q122 -2 205 -20l-6 -64q-97 5 -195 5q-44 0 -65 -2t-41 -12t-26.5 -31.5t-6.5 -59.5q0 -55 19.5 -78t67.5 -35l140 -35q77 -19 108 -65t31 -129q0 -114 -51.5 -151t-179.5 -37q-109 0 -214 19l6 65q168 -6 211 -5 q82 0 110.5 21t28.5 90q0 57 -19.5 79.5t-67.5 34.5l-143 36q-73 18 -104.5 64.5t-31.5 127.5zM117 871l29 37l129 -87h8l130 87l30 -37l-144 -127h-39z" />
<glyph unicode="&#x161;" horiz-adv-x="508" d="M50 365q0 81 42.5 108.5t147.5 25.5q117 -2 205 -15l-7 -62q-152 5 -185 5q-74 1 -97 -9t-23 -53q0 -35 15.5 -48t55.5 -22l142 -32q60 -15 86.5 -44.5t26.5 -89.5q0 -85 -47 -112.5t-161 -27.5q-102 0 -191 14l6 62q85 -5 168 -4q85 0 114 13t29 55q0 33 -17.5 45.5 t-59.5 22.5l-140 32q-60 14 -85 45t-25 91zM96 691l29 37l130 -87h8l129 87l31 -37l-144 -127h-40z" />
<glyph unicode="&#x162;" horiz-adv-x="581" d="M24 612v78h533v-78h-223v-612h-88v612h-222zM188 -229l14 45q40 -1 65.5 18.5t26.5 50.5q1 18 -11 24.5t-48 7.5l9 40q61 5 87 -8.5t25 -56.5q-2 -64 -49 -97.5t-119 -23.5z" />
<glyph unicode="&#x163;" horiz-adv-x="381" d="M27 420v62l88 4v145h85v-144h155v-67h-155v-286q0 -35 15 -50t51 -15h74l10 -65q-46 -13 -110 -13q-61 0 -93 34t-32 98v297h-88zM116 -238l14 45q40 -1 65.5 18.5t26.5 50.5q1 18 -11 24.5t-48 7.5l9 40q61 6 87 -8t25 -57q-2 -63 -49 -97t-119 -24z" />
<glyph unicode="&#x164;" horiz-adv-x="581" d="M24 612v78h533v-78h-223v-612h-88v612h-222zM128 871l29 37l130 -87h8l129 87l31 -37l-144 -127h-40z" />
<glyph unicode="&#x165;" horiz-adv-x="381" d="M27 420v62l88 4v145h85v-144h155v-67h-155v-286q0 -35 15 -50t51 -15h74l10 -65q-46 -13 -110 -13q-61 0 -93 34t-32 98v297h-88zM268 693v51q1 27 30 27h23q16 0 22 -6t6 -21v-55q-2 -74 -32 -132l-36 10q8 45 8 102q-21 0 -21 24z" />
<glyph unicode="&#x166;" horiz-adv-x="581" d="M24 612v78h533v-78h-223v-191h140v-50h-140v-371h-88v371h-141v50h141v191h-222z" />
<glyph unicode="&#x167;" horiz-adv-x="381" d="M27 420v62l88 4v145h85v-144h155v-67h-155v-95h130v-48h-130v-143q0 -35 15 -50t51 -15h74l10 -65q-46 -13 -110 -13q-61 0 -93 34t-32 98v154h-65v48h65v95h-88z" />
<glyph unicode="&#x16a;" horiz-adv-x="666" d="M82 264v426h88v-426q0 -111 36 -154.5t127 -43.5q90 0 126.5 43.5t36.5 154.5v426h88v-426q0 -151 -56 -214t-191 -63q-140 0 -197.5 63t-57.5 214zM195 786v63h279v-63h-279z" />
<glyph unicode="&#x16b;" d="M75 121v366h85v-342q-1 -46 17 -65t60 -19q37 0 75 16.5t95 53.5v356h85v-487h-68l-6 70q-110 -83 -210 -83q-133 0 -133 134zM148 610v63h279v-63h-279z" />
<glyph unicode="&#x16e;" horiz-adv-x="666" d="M82 264v426h88v-426q0 -111 36 -154.5t127 -43.5q90 0 126.5 43.5t36.5 154.5v426h88v-426q0 -151 -56 -214t-191 -63q-140 0 -197.5 63t-57.5 214zM227 819q0 44 31.5 74.5t75.5 30.5t75.5 -30.5t31.5 -74.5t-31 -74t-76 -30t-76 30t-31 74zM275 819q0 -27 17 -44 t42 -17q26 0 43 17t17 44t-17 44.5t-43 17.5t-42.5 -17t-16.5 -45z" />
<glyph unicode="&#x16f;" d="M75 121v366h85v-342q-1 -46 17 -65t60 -19q37 0 75 16.5t95 53.5v356h85v-487h-68l-6 70q-110 -83 -210 -83q-133 0 -133 134zM180 643q0 44 31.5 74.5t75.5 30.5t75.5 -30.5t31.5 -74.5q0 -45 -31 -75t-76 -30t-76 30t-31 75zM228 643q0 -27 17 -44t42 -17q26 0 43 17 t17 44t-17 44t-43 17t-42.5 -17t-16.5 -44z" />
<glyph unicode="&#x170;" horiz-adv-x="666" d="M82 264v426h88v-426q0 -111 36 -154.5t127 -43.5q90 0 126.5 43.5t36.5 154.5v426h88v-426q0 -151 -56 -214t-191 -63q-140 0 -197.5 63t-57.5 214zM202 750l111 174l62 -42l-135 -160zM367 750l110 174l62 -42l-135 -160z" />
<glyph unicode="&#x171;" d="M75 121v366h85v-342q-1 -46 17 -65t60 -19q37 0 75 16.5t95 53.5v356h85v-487h-68l-6 70q-110 -83 -210 -83q-133 0 -133 134zM156 574l110 174l62 -43l-135 -159zM320 574l110 174l62 -43l-135 -159z" />
<glyph unicode="&#x172;" horiz-adv-x="666" d="M82 264v426h88v-426q0 -111 36 -154.5t127 -43.5q90 0 126.5 43.5t36.5 154.5v426h88v-426q0 -141 -48.5 -205t-163.5 -71q-52 -59 -72 -111q-15 -36 7.5 -48t70.5 4l10 -35q-92 -35 -130.5 -8.5t-17.5 84.5q20 57 89 113q-135 2 -191 65.5t-56 211.5z" />
<glyph unicode="&#x173;" d="M75 121v366h85v-342q-1 -46 17 -65t60 -19q37 0 75 16.5t95 53.5v356h85v-487h2q-53 -63 -74 -114q-15 -36 7.5 -48t70.5 4l11 -35q-93 -35 -131.5 -8.5t-17.5 84.5q21 59 93 117h-29l-6 70q-110 -83 -210 -83q-133 0 -133 134z" />
<glyph unicode="&#x174;" horiz-adv-x="948" d="M31 690h93l108 -538q2 -9 14 -85h23q8 47 16 85l107 509q5 29 34 29h96q27 0 34 -29l107 -509q10 -49 14 -85h25q9 60 13 84l109 539h93l-140 -664q-7 -26 -35 -26h-100q-29 0 -34 27l-108 519q-6 26 -16 78h-21l-15 -78l-107 -519q-7 -27 -35 -27h-101q-13 0 -22.5 7.5 t-11.5 18.5zM312 768l131 128h62l133 -128l-30 -36l-130 97h-8l-129 -97z" />
<glyph unicode="&#x175;" horiz-adv-x="824" d="M25 487h88l101 -359q9 -31 16 -73h13l18 73l81 332q5 27 32 27h77q25 0 32 -28l80 -331q2 -11 8 -35.5t9 -37.5h13q1 5 6.5 31.5t10.5 41.5l101 359h88l-142 -463q-6 -24 -33 -24h-77q-12 0 -21.5 7.5t-11.5 19.5l-80 331q-3 14 -8 39.5t-8 37.5h-12l-17 -77l-79 -331 q-7 -27 -34 -27h-76q-27 0 -33 24zM250 589l131 127h62l132 -127l-30 -37l-129 98h-8l-130 -98z" />
<glyph unicode="&#x176;" horiz-adv-x="569" d="M11 690h94l145 -291q12 -24 31 -78h7q16 44 31 77l145 292h93l-229 -448v-242h-88v243zM121 769l132 127h62l132 -127l-30 -37l-129 98h-8l-130 -98z" />
<glyph unicode="&#x177;" horiz-adv-x="529" d="M18 487h91l129 -363q14 -41 18 -59h14q8 20 21 59l127 363h92l-195 -514q-64 -172 -213 -179l-8 56q57 18 89.5 49.5t52.5 79.5l8 21h-19q-24 0 -30 22zM104 589l132 127h61l133 -127l-30 -37l-130 98h-8l-129 -98z" />
<glyph unicode="&#x178;" horiz-adv-x="569" d="M11 690h94l145 -291q12 -24 31 -78h7q16 44 31 77l145 292h93l-229 -448v-242h-88v243zM158 791v55q0 24 23 24h29q23 0 23 -24v-55q0 -24 -23 -24h-29q-23 0 -23 24zM335 791v55q0 24 23 24h29q24 0 24 -24v-55q0 -24 -24 -24h-29q-23 0 -23 24z" />
<glyph unicode="&#x179;" horiz-adv-x="566" d="M48 0v75l368 540h-362v75h458v-75l-366 -540h373v-75h-471zM220 767l172 147l49 -66l-192 -120z" />
<glyph unicode="&#x17a;" horiz-adv-x="510" d="M49 0v69l313 348h-310v70h406v-70l-314 -348h317v-69h-412zM190 587l172 147l48 -65l-191 -121z" />
<glyph unicode="&#x17b;" horiz-adv-x="566" d="M48 0v75l368 540h-362v75h458v-75l-366 -540h373v-75h-471zM246 785v56q0 26 26 26h27q26 0 26 -26v-56q0 -26 -26 -26h-27q-26 0 -26 26z" />
<glyph unicode="&#x17c;" horiz-adv-x="510" d="M49 0v69l313 348h-310v70h406v-70l-314 -348h317v-69h-412zM215 605v57q0 25 26 25h28q26 0 26 -25v-57q0 -26 -26 -26h-28q-26 0 -26 26z" />
<glyph unicode="&#x17d;" horiz-adv-x="566" d="M48 0v75l368 540h-362v75h458v-75l-366 -540h373v-75h-471zM124 871l29 37l129 -87h8l130 87l30 -37l-144 -127h-39z" />
<glyph unicode="&#x17e;" horiz-adv-x="510" d="M49 0v69l313 348h-310v70h406v-70l-314 -348h317v-69h-412zM93 691l29 37l130 -87h8l129 87l30 -37l-143 -127h-40z" />
<glyph unicode="&#x192;" horiz-adv-x="442" d="M-46 -139l11 64h67q44 0 63.5 18.5t23.5 62.5l31 325h-98l4 63l100 4l15 160q13 142 155 142q70 0 102 -6l-11 -64h-71q-46 0 -66 -17t-24 -65l-14 -150h143l-7 -67h-143l-31 -335q-6 -70 -41 -106t-107 -36q-63 0 -102 7z" />
<glyph unicode="&#x218;" horiz-adv-x="561" d="M55 520q0 60 12.5 96.5t43 55t68 24.5t100.5 6q122 -2 205 -20l-6 -64q-97 5 -195 5q-44 0 -65 -2t-41 -12t-26.5 -31.5t-6.5 -59.5q0 -55 19.5 -78t67.5 -35l140 -35q77 -19 108 -65t31 -129q0 -114 -51.5 -151t-179.5 -37q-109 0 -214 19l6 65q168 -6 211 -5 q82 0 110.5 21t28.5 90q0 57 -19.5 79.5t-67.5 34.5l-143 36q-73 18 -104.5 64.5t-31.5 127.5zM245 -86q1 28 30 28h22q16 0 22.5 -6.5t6.5 -21.5v-55q-1 -69 -32 -132l-37 10q9 52 9 103q-23 0 -21 24v50z" />
<glyph unicode="&#x219;" horiz-adv-x="508" d="M50 365q0 81 42.5 108.5t147.5 25.5q117 -2 205 -15l-7 -62q-152 5 -185 5q-74 1 -97 -9t-23 -53q0 -35 15.5 -48t55.5 -22l142 -32q60 -15 86.5 -44.5t26.5 -89.5q0 -85 -47 -112.5t-161 -27.5q-102 0 -191 14l6 62q85 -5 168 -4q85 0 114 13t29 55q0 33 -17.5 45.5 t-59.5 22.5l-140 32q-60 14 -85 45t-25 91zM220 -86q1 28 29 28h23q16 0 22 -6.5t6 -21.5v-55q-1 -71 -31 -132l-37 10q9 52 9 103q-23 0 -21 24v50z" />
<glyph unicode="&#x21a;" horiz-adv-x="581" d="M24 612v78h533v-78h-223v-612h-88v612h-222zM238 -86q1 28 30 28h23q16 0 22 -6.5t6 -21.5v-55q-1 -72 -32 -132l-36 10q8 47 8 103q-21 0 -21 24v50z" />
<glyph unicode="&#x21b;" horiz-adv-x="381" d="M27 420v62l88 4v145h85v-144h155v-67h-155v-286q0 -35 15 -50t51 -15h74l10 -65q-46 -13 -110 -13q-61 0 -93 34t-32 98v297h-88zM189 -86q1 28 29 28h23q16 0 22 -6.5t6 -21.5v-55q-1 -71 -31 -132l-37 10q9 52 9 103q-23 0 -21 24v50z" />
<glyph unicode="&#x2c6;" horiz-adv-x="420" d="M48 586l132 127h61l133 -127l-30 -37l-129 97h-8l-130 -97z" />
<glyph unicode="&#x2c7;" horiz-adv-x="420" d="M48 688l29 36l130 -87h8l129 87l30 -36l-143 -128h-40z" />
<glyph unicode="&#x2d8;" horiz-adv-x="375" d="M38 690l44 6q-1 -35 27 -55t80 -20q49 0 77 20t28 55l44 -6q4 -59 -37 -95.5t-113 -36.5t-113 36.5t-37 95.5z" />
<glyph unicode="&#x2d9;" horiz-adv-x="221" d="M71 603v57q0 25 26 25h27q26 0 26 -25v-57q0 -26 -26 -26h-27q-26 0 -26 26z" />
<glyph unicode="&#x2da;" horiz-adv-x="300" d="M43 637q0 44 31.5 74.5t75.5 30.5t75.5 -30.5t31.5 -74.5q0 -45 -31 -75t-76 -30t-76 30t-31 75zM91 637q0 -28 17 -44.5t42 -16.5q26 0 43 16.5t17 44.5q0 27 -17 44t-43 17t-42.5 -17t-16.5 -44z" />
<glyph unicode="&#x2db;" horiz-adv-x="252" d="M48 -117q20 59 96 119l38 -2q-54 -61 -74 -114q-15 -36 7.5 -48t70.5 4l10 -35q-92 -35 -130.5 -8.5t-17.5 84.5z" />
<glyph unicode="&#x2dc;" horiz-adv-x="420" d="M52 585q-6 58 16.5 87.5t61.5 26.5q32 -3 77 -27.5t72 -27.5q28 -4 38.5 8t10.5 42h40q6 -55 -16 -85t-62 -27q-37 3 -83.5 28.5t-67.5 28.5q-27 3 -37 -10t-10 -44h-40z" />
<glyph unicode="&#x2dd;" horiz-adv-x="455" d="M56 560l110 174l62 -43l-134 -159zM221 560l109 174l62 -43l-134 -159z" />
<glyph unicode="&#x394;" horiz-adv-x="626" d="M25 0v37l244 653h88l244 -653v-37h-576zM126 72h372l-162 455q-4 11 -22 78q-20 -67 -24 -79z" />
<glyph unicode="&#x3a9;" horiz-adv-x="719" d="M52 0v77h104q38 0 66 -6q-78 57 -111.5 125.5t-32.5 175.5q0 168 66 249.5t216 81.5q147 0 214 -82t67 -249q0 -110 -33.5 -177t-111.5 -124q36 6 66 6h105v-77h-252v74q75 52 104.5 117t30.5 170q-1 140 -45 202t-146 62q-104 0 -147 -61.5t-43 -204.5q0 -108 30 -168.5 t104 -116.5v-74h-251z" />
<glyph unicode="&#x3bc;" horiz-adv-x="594" d="M86 -201v688h85v-342q-1 -39 20 -58t64 -19q62 0 165 61v358h85v-487h-66l-8 75q-104 -88 -196 -88q-45 0 -80 19q6 -32 6 -66v-141h-75z" />
<glyph unicode="&#x3c0;" horiz-adv-x="643" d="M27 418v69h589v-69h-95v-418h-85v418h-230v-418h-84v418h-95z" />
<glyph unicode="&#x401;" horiz-adv-x="560" d="M81 119v452q0 55 36 87.5t97 32.5q203 0 295 -6l-4 -69h-277q-31 0 -45 -16t-14 -50v-150h297v-71h-297v-189q0 -35 14 -51t45 -16h277l4 -68q-92 -6 -295 -6q-62 0 -97.5 32.5t-35.5 87.5zM183 812v54q0 24 23 24h29q23 0 23 -24v-54q0 -24 -23 -24h-29q-23 0 -23 24z M360 812v54q0 24 24 24h28q24 0 24 -24v-54q0 -24 -24 -24h-28q-24 0 -24 24z" />
<glyph unicode="&#x402;" horiz-adv-x="752" d="M24 612v78h533v-78h-223v-228q95 58 203 58q81 0 126 -45t45 -165q0 -130 -66 -185.5t-190 -50.5l-8 64q94 6 135.5 40t41.5 124q0 87 -25.5 114.5t-86.5 27.5q-81 0 -175 -52v-314h-88v612h-222z" />
<glyph unicode="&#x403;" horiz-adv-x="518" d="M85 0v561q0 57 35.5 93.5t90.5 36.5q196 0 286 -7l-4 -68h-253q-36 0 -52 -16.5t-16 -54.5v-545h-87zM229 767l173 147l48 -66l-191 -120z" />
<glyph unicode="&#x404;" horiz-adv-x="577" d="M61 345q0 197 62 277t216 80q109 0 190 -20l-9 -68q-77 9 -182 9q-96 0 -137.5 -49.5t-47.5 -173.5h295v-69h-296q1 -148 42 -206t144 -58q112 0 188 11l10 -67q-82 -23 -197 -23q-154 0 -216 80t-62 277z" />
<glyph unicode="&#x405;" horiz-adv-x="561" d="M55 520q0 60 12.5 96.5t43 55t68 24.5t100.5 6q122 -2 205 -20l-6 -64q-97 5 -195 5q-44 0 -65 -2t-41 -12t-26.5 -31.5t-6.5 -59.5q0 -55 19.5 -78t67.5 -35l140 -35q77 -19 108 -65t31 -129q0 -114 -51.5 -151t-179.5 -37q-109 0 -214 19l6 65q168 -6 211 -5 q82 0 110.5 21t28.5 90q0 57 -19.5 79.5t-67.5 34.5l-143 36q-73 18 -104.5 64.5t-31.5 127.5z" />
<glyph unicode="&#x406;" horiz-adv-x="262" d="M87 0v690h88v-690h-88z" />
<glyph unicode="&#x407;" horiz-adv-x="262" d="M4 790v55q0 24 24 24h29q23 0 23 -24v-55q0 -24 -23 -24h-29q-24 0 -24 24zM87 0v690h88v-690h-88zM181 790v55q0 24 24 24h29q23 0 23 -24v-55q0 -24 -23 -24h-29q-24 0 -24 24z" />
<glyph unicode="&#x408;" horiz-adv-x="340" d="M30 4l10 62h50q78 0 78 76v548h88v-545q0 -76 -34.5 -115t-99.5 -39q-56 0 -92 13z" />
<glyph unicode="&#x409;" horiz-adv-x="970" d="M22 59q58 24 96 96q21 41 33.5 95.5t17.5 101t14 159.5q3 33 4 50q7 129 143 129h225v-278h142q128 0 177.5 -46.5t49.5 -164.5q0 -120 -48 -164.5t-166 -44.5q-155 0 -242 8v4v614h-130q-33 0 -48 -17.5t-18 -52.5q-18 -201 -30 -277t-41 -141t-69 -96t-103 -35zM555 70 q38 -1 142 -1q82 0 110 26.5t28 107.5q0 77 -27.5 106t-110.5 29h-142v-268z" />
<glyph unicode="&#x40a;" horiz-adv-x="979" d="M87 0v690h88v-280h301v280h87v-280h143q127 0 176.5 -46t49.5 -164q0 -120 -47.5 -164t-165.5 -44q-156 0 -243 8v338h-301v-338h-88zM563 70q38 -1 143 -1q82 0 110 26t28 106q0 78 -28 107.5t-110 29.5h-143v-268z" />
<glyph unicode="&#x40b;" horiz-adv-x="776" d="M24 612v78h533v-78h-223v-229q112 59 228 59q80 0 119 -38.5t39 -117.5v-286h-88v269q0 53 -22.5 74.5t-77.5 21.5q-94 0 -198 -54v-311h-88v612h-222z" />
<glyph unicode="&#x40c;" horiz-adv-x="600" d="M87 0v690h87v-216q0 -40 -6 -79h75q34 0 62 16t46 34.5t40 65t32 72.5t33 93q3 9 5 14h90q-58 -165 -83 -213q-53 -100 -132 -113q-5 -1 -11 -2v-4q19 -2 36.5 -8t31.5 -12.5t28 -21.5t23.5 -26t22 -35t19.5 -38t20 -46.5t19.5 -50.5t21 -58.5t22.5 -61.5h-93l-15 42 q-18 50 -26.5 73.5t-23.5 60.5t-25.5 53.5t-27 39t-32.5 32t-37 16.5t-46 7h-75q6 -38 6 -73v-251h-87zM238 767l172 147l49 -66l-192 -120z" />
<glyph unicode="&#x40d;" horiz-adv-x="691" d="M87 0v690h85v-498q0 -37 -5 -82h4q15 33 39 75l303 505h91v-690h-85v503q0 47 5 79h-5q-13 -34 -36 -75l-306 -507h-90zM177 848l49 66l172 -147l-29 -39z" />
<glyph unicode="&#x40e;" horiz-adv-x="563" d="M21 690h91l139 -399q6 -16 23 -16h40l147 415h90l-186 -520q-30 -83 -64 -127.5t-91 -49.5q-60 -4 -124 14l10 65q37 -3 56.5 -4.5t39.5 2t28 7.5t19.5 19t18 29.5t18.5 44.5l12 31h-38q-53 0 -69 47zM131 877l44 7q0 -36 27.5 -55.5t79.5 -19.5q50 0 78 19.5t27 55.5 l44 -7q4 -59 -36.5 -95t-112.5 -36t-113.5 36t-37.5 95z" />
<glyph unicode="&#x40f;" horiz-adv-x="674" d="M87 0v690h88v-618h324v618h88v-690h-213l-4 -151h-60l-6 151h-217z" />
<glyph unicode="&#x410;" horiz-adv-x="622" d="M10 0l222 666q6 24 33 24h92q27 0 33 -24l222 -666h-91l-68 216h-284l-68 -216h-91zM193 292h236l-87 274q-9 26 -17 56h-28l-17 -56z" />
<glyph unicode="&#x411;" horiz-adv-x="599" d="M87 0v690q108 6 214 6q105 0 210 -6l-8 -73h-328v-224h146q128 0 177.5 -44.5t49.5 -158.5q0 -66 -14 -106t-47 -60.5t-73 -26.5t-108 -6q-118 0 -217 9h-2zM175 68q38 -1 146 -1q83 0 110.5 25t27.5 102q0 75 -27.5 102.5t-110.5 27.5h-146v-256z" />
<glyph unicode="&#x412;" horiz-adv-x="620" d="M87 0v690q79 8 224 8q129 0 179.5 -37.5t50.5 -142.5q0 -75 -28 -113.5t-89 -44.5v-4q75 -7 106.5 -52.5t31.5 -131.5q0 -104 -49 -142t-171 -38q-166 0 -255 8zM173 68q41 -1 155 -1q84 0 114.5 24t30.5 96q0 79 -32.5 107t-118.5 30h-149v-256zM173 391h148 q77 1 106 25t29 92q0 69 -31.5 92t-117.5 23h-134v-232z" />
<glyph unicode="&#x413;" horiz-adv-x="518" d="M85 0v561q0 57 35.5 93.5t90.5 36.5q196 0 286 -7l-4 -68h-253q-36 0 -52 -16.5t-16 -54.5v-545h-87z" />
<glyph unicode="&#x414;" horiz-adv-x="693" d="M22 72h67q85 181 101 489q2 61 39 95t101 34h246v-618h85v-223h-61l-8 151h-500l-9 -151h-61v223zM174 72h314v546h-142q-37 0 -53.5 -16t-18.5 -54q-9 -157 -31 -269t-69 -207z" />
<glyph unicode="&#x415;" horiz-adv-x="560" d="M81 119v452q0 55 36 87.5t97 32.5q203 0 295 -6l-4 -69h-277q-31 0 -45 -16t-14 -50v-150h297v-71h-297v-189q0 -35 14 -51t45 -16h277l4 -68q-92 -6 -295 -6q-62 0 -97.5 32.5t-35.5 87.5z" />
<glyph unicode="&#x416;" horiz-adv-x="908" d="M31 0q64 183 88 231q48 96 116 119q18 6 39 8v4q-33 4 -61 21t-47 40t-38.5 64t-33.5 77t-34 94q-7 21 -11 32h90q57 -157 83 -203q52 -92 127 -92h71q-6 39 -6 79v216h84v-216q0 -48 -6 -79h66q25 0 46 8t39.5 28.5t31.5 38.5t30 56.5t26 62t28 74.5q7 18 10 27h90 q-58 -165 -83 -213q-53 -100 -132 -113q-5 -1 -11 -2v-4q36 -3 65.5 -21.5t48.5 -38t42.5 -70t35.5 -82t39 -109.5q9 -24 13 -37h-93q-64 175 -84 215q-44 86 -102 104q-18 5 -40 5h-66q6 -37 6 -73v-251h-84v251q0 29 7 73h-72q-51 0 -89 -38t-58 -82t-61 -156l-18 -48h-92 z" />
<glyph unicode="&#x417;" horiz-adv-x="550" d="M37 14l7 64q113 -13 215 -13q81 0 111 24.5t30 97.5q0 79 -32 107.5t-116 28.5h-116v69h116q74 0 102 24t28 92q0 70 -31 94t-113 24q-60 0 -178 -11l-7 67q89 16 190 16q128 0 177.5 -37.5t49.5 -142.5q0 -75 -27.5 -113.5t-88.5 -44.5v-4q74 -7 105 -52.5t31 -131.5 q0 -104 -48.5 -142t-168.5 -38q-143 0 -236 22z" />
<glyph unicode="&#x418;" horiz-adv-x="691" d="M87 0v690h85v-498q0 -37 -5 -82h4q15 33 39 75l303 505h91v-690h-85v503q0 47 5 79h-5q-13 -34 -36 -75l-306 -507h-90z" />
<glyph unicode="&#x419;" horiz-adv-x="691" d="M87 0v690h85v-498q0 -37 -5 -82h4q15 33 39 75l303 505h91v-690h-85v503q0 47 5 79h-5q-13 -34 -36 -75l-306 -507h-90zM197 883h65q0 -43 22.5 -66.5t63.5 -23.5t62.5 23.5t21.5 66.5h65q4 -60 -37 -99t-112 -39q-72 0 -113.5 39t-37.5 99z" />
<glyph unicode="&#x41a;" horiz-adv-x="600" d="M87 0v690h87v-216q0 -40 -6 -79h75q34 0 62 16t46 34.5t40 65t32 72.5t33 93q3 9 5 14h90q-58 -165 -83 -213q-53 -100 -132 -113q-5 -1 -11 -2v-4q19 -2 36.5 -8t31.5 -12.5t28 -21.5t23.5 -26t22 -35t19.5 -38t20 -46.5t19.5 -50.5t21 -58.5t22.5 -61.5h-93l-15 42 q-18 50 -26.5 73.5t-23.5 60.5t-25.5 53.5t-27 39t-32.5 32t-37 16.5t-46 7h-75q6 -38 6 -73v-251h-87z" />
<glyph unicode="&#x41b;" horiz-adv-x="651" d="M10 67q69 21 99 87q28 63 41 139.5t28 270.5q12 126 137 126h249v-690h-88v618h-138q-68 0 -74 -70q-13 -148 -19 -201t-19 -113t-34 -104q-60 -131 -174 -131z" />
<glyph unicode="&#x41c;" horiz-adv-x="877" d="M73 0l27 653q2 37 37 37h100q28 0 37 -30l129 -421q6 -18 15.5 -53.5t10.5 -39.5h18q3 11 11.5 43.5t14.5 51.5l129 419q8 30 38 30h99q36 0 36 -37l29 -653h-88l-25 617h-21l-154 -509q-8 -30 -38 -30h-79q-31 0 -40 30l-154 509h-20l-24 -617h-88z" />
<glyph unicode="&#x41d;" horiz-adv-x="668" d="M87 0v690h88v-283h318v283h88v-690h-88v331h-318v-331h-88z" />
<glyph unicode="&#x41e;" horiz-adv-x="668" d="M61 345q0 201 60.5 279.5t212.5 78.5t212 -78.5t60 -279.5t-60 -279.5t-212 -78.5t-212.5 78.5t-60.5 279.5zM154 345q0 -158 39 -218.5t141 -60.5t141 60.5t39 218.5t-39 218.5t-141 60.5t-141 -60.5t-39 -218.5z" />
<glyph unicode="&#x41f;" horiz-adv-x="669" d="M87 0v690h495v-690h-88v618h-319v-618h-88z" />
<glyph unicode="&#x420;" horiz-adv-x="590" d="M87 0v690q84 9 238 9q125 0 173 -45.5t48 -170.5t-46.5 -170.5t-165.5 -45.5q-80 0 -159 9v-276h-88zM175 343h148q77 1 105.5 29.5t28.5 110.5t-29 111t-105 29q-108 0 -148 -1v-279z" />
<glyph unicode="&#x421;" d="M61 345q0 197 61 277t210 80q107 0 188 -20l-9 -67q-90 9 -179 9q-101 0 -139.5 -60.5t-38.5 -218.5t38.5 -218.5t139.5 -60.5q116 0 193 11l9 -66q-83 -23 -202 -23q-149 0 -210 80t-61 277z" />
<glyph unicode="&#x422;" horiz-adv-x="581" d="M24 612v78h533v-78h-223v-612h-88v612h-222z" />
<glyph unicode="&#x423;" horiz-adv-x="563" d="M21 690h91l139 -399q6 -16 23 -16h40l147 415h90l-186 -520q-30 -83 -64 -127.5t-91 -49.5q-60 -4 -124 14l10 65q37 -3 56.5 -4.5t39.5 2t28 7.5t19.5 19t18 29.5t18.5 44.5l12 31h-38q-53 0 -69 47z" />
<glyph unicode="&#x424;" horiz-adv-x="822" d="M51 352q0 159 70.5 225t245.5 72v97h88v-97q174 -6 244.5 -72t71.5 -225q-1 -156 -71.5 -221t-244.5 -71v-97h-88v97q-174 6 -245 71t-71 221zM141 352q0 -120 49 -166.5t180 -51.5v441q-131 -5 -180 -52.5t-49 -170.5zM451 134q131 5 180 51.5t50 166.5 q-1 123 -50 170.5t-180 52.5v-441z" />
<glyph unicode="&#x425;" horiz-adv-x="613" d="M26 0l194 357l-181 333h95l158 -298h28l159 298h95l-182 -333l195 -357h-96l-172 324h-26l-172 -324h-95z" />
<glyph unicode="&#x426;" horiz-adv-x="691" d="M87 0v690h88v-618h311v618h88v-618h85v-223h-61l-8 151h-503z" />
<glyph unicode="&#x427;" horiz-adv-x="625" d="M60 407v283h88v-265q-1 -50 22 -72.5t75 -22.5q99 0 206 53v307h87v-690h-87v315q-115 -64 -237 -64q-79 0 -116.5 38t-37.5 118z" />
<glyph unicode="&#x428;" horiz-adv-x="929" d="M87 0v690h86v-618h249v618h85v-618h249v618h86v-690h-755z" />
<glyph unicode="&#x429;" horiz-adv-x="952" d="M87 0v690h86v-618h245v618h86v-618h246v618h85v-618h85v-223h-61l-8 151h-764z" />
<glyph unicode="&#x42a;" horiz-adv-x="748" d="M23 612v78h308v-278h144q127 0 176.5 -47t49.5 -165q0 -120 -47.5 -164t-165.5 -44q-158 0 -246 8v612h-219zM331 70q38 -1 144 -1q82 0 110 26t28 106q0 78 -28 107.5t-110 29.5h-144v-268z" />
<glyph unicode="&#x42b;" horiz-adv-x="846" d="M87 0v690h88v-278h146q127 0 176.5 -47t49.5 -165q0 -120 -47.5 -164t-165.5 -44q-158 0 -245 8h-2zM175 70q38 -1 146 -1q82 0 110 26t28 106q0 78 -28 107.5t-110 29.5h-146v-268zM672 0v690h87v-690h-87z" />
<glyph unicode="&#x42c;" horiz-adv-x="594" d="M87 0v690h88v-278h146q127 0 176.5 -47t49.5 -165q0 -120 -47.5 -164t-165.5 -44q-158 0 -245 8h-2zM175 70q38 -1 146 -1q82 0 110 26t28 106q0 78 -28 107.5t-110 29.5h-146v-268z" />
<glyph unicode="&#x42d;" horiz-adv-x="577" d="M41 11l9 67q76 -11 188 -11q103 0 144 58t42 207h-296v69h295q-6 124 -47.5 173t-137.5 49q-105 0 -181 -9l-10 68q81 20 191 20q154 0 215.5 -80t61.5 -277t-61.5 -277t-215.5 -80q-116 0 -197 23z" />
<glyph unicode="&#x42e;" horiz-adv-x="927" d="M88 0v690h88v-296h157q6 172 64.5 240.5t193.5 68.5q152 0 212.5 -78.5t60.5 -279.5t-60.5 -279.5t-212.5 -78.5q-140 0 -198 74t-61 262h-156v-323h-88zM419 345q0 -158 37 -218.5t135 -60.5q102 0 141 60.5t40 218.5q-1 158 -40 218.5t-141 60.5q-98 0 -135 -60.5 t-37 -218.5z" />
<glyph unicode="&#x42f;" horiz-adv-x="613" d="M43 0l64 211q24 80 94 97l-1 5q-130 18 -128 184q0 109 51 155.5t168 46.5q152 0 235 -9v-690h-88v281q-15 0 -65 -0.5t-85 -0.5q-69 0 -91 -73l-60 -207h-94zM160 492q0 -69 29 -102.5t99 -33.5h150v266q-38 1 -146 1q-73 0 -102 -28t-30 -103z" />
<glyph unicode="&#x430;" horiz-adv-x="552" d="M53 127v53q0 57 35.5 88.5t99.5 31.5h203v43q-1 46 -22 65t-77 19q-71 0 -210 -13l-8 63q136 22 236 22q85 0 125.5 -35.5t40.5 -120.5v-343h-67l-10 80q-35 -36 -87.5 -62.5t-113.5 -26.5q-67 0 -106 35.5t-39 100.5zM139 137q0 -38 18.5 -55.5t57.5 -17.5q39 -1 87 18 t89 55v98h-188q-64 -3 -64 -67v-31z" />
<glyph unicode="&#x431;" horiz-adv-x="574" d="M71 294q0 69 3.5 116t14.5 93t31.5 75.5t53.5 53.5t81 38q27 8 69.5 15.5t77.5 18.5t71 33l20 -66q-36 -22 -69 -33t-75.5 -19t-65.5 -14q-70 -20 -100 -62t-39 -103q-6 -30 -9 -71h2q20 47 60.5 75t125.5 28q107 0 150.5 -54t43.5 -181q0 -125 -48 -187t-175 -62 q-61 0 -103.5 16t-65.5 40t-35.5 67.5t-15.5 82t-3 100.5zM159 237q0 -100 30 -138.5t106 -38.5q74 0 103.5 38t29.5 139q0 94 -27 128.5t-100 34.5q-85 0 -113.5 -38.5t-28.5 -124.5z" />
<glyph unicode="&#x432;" horiz-adv-x="554" d="M79 -1v487q73 6 198 6q116 0 160.5 -27t44.5 -103q0 -52 -25 -79t-80 -31v-3q66 -5 94 -36.5t28 -92.5q0 -73 -43.5 -100t-151.5 -27q-142 0 -225 6zM159 61q15 0 60 -0.5t73 -0.5q69 0 95.5 16t26.5 62t-28 64t-99 18h-128v-159zM159 281h128q64 0 89 15.5t25 58.5 q0 41 -27.5 55.5t-99.5 14.5q-69 1 -115 0v-144z" />
<glyph unicode="&#x433;" horiz-adv-x="462" d="M77 0v383q0 106 108 106q175 0 255 -8l-3 -60h-217q-31 0 -45 -14.5t-14 -45.5v-361h-84z" />
<glyph unicode="&#x434;" horiz-adv-x="587" d="M29 68h56q61 123 73 307q8 112 124 112h200v-419h67v-212h-56l-7 144h-394l-8 -144h-55v212zM162 68h239v352h-105q-56 0 -61 -59q-13 -182 -73 -293z" />
<glyph unicode="&#x435;" horiz-adv-x="540" d="M56 245q0 141 52 197.5t171 56.5q109 0 159 -39.5t51 -119.5q0 -138 -116 -138h-227q7 -84 41 -113t112 -29q84 0 170 12l8 -57q-64 -27 -189 -27q-126 0 -179 58.5t-53 198.5zM145 268h206q54 0 52 72q0 47 -27 67t-93 20q-77 0 -107 -34t-31 -125z" />
<glyph unicode="&#x436;" horiz-adv-x="789" d="M34 0q20 55 28.5 77.5t24.5 59t27 50.5t28.5 31.5t37.5 24.5t46 10v2q-46 5 -78.5 36.5t-47 63t-47.5 120.5q-3 8 -5 12h85q19 -48 28.5 -70.5t25.5 -53.5t29 -44.5t32.5 -23.5t43.5 -10h71q-4 24 -4 57v145h75v-145q0 -33 -4 -57h66q55 0 85.5 44.5t73.5 157.5h86 q-21 -56 -30 -79.5t-26 -59t-32 -50t-38 -27.5t-52 -16v-2q26 -3 46 -10t37.5 -24.5t28.5 -31.5t27 -50.5t24.5 -59t28.5 -77.5h-87q-53 134 -73 165q-35 54 -91 56h-4h-70q4 -34 4 -48v-173h-75v173q0 14 4 48h-75q-54 -1 -82 -40.5t-75 -155.5q-6 -16 -10 -25h-87z" />
<glyph unicode="&#x437;" horiz-adv-x="496" d="M38 6l7 65q90 -8 181 -8q74 0 100.5 15.5t26.5 59.5q0 45 -27.5 62t-98.5 17h-116v63h116q65 0 88.5 15.5t23.5 58.5q0 42 -27.5 55.5t-106.5 13.5q-86 0 -145 -8l-6 65q62 15 150 15q124 0 171.5 -26.5t47.5 -103.5q0 -54 -23 -81t-79 -32v-3q63 -5 91.5 -36t28.5 -93 q0 -75 -47 -102t-162 -27q-111 0 -194 15z" />
<glyph unicode="&#x438;" horiz-adv-x="587" d="M79 0v487h77v-323q0 -29 -3 -65h2q16 33 35 56l248 332h69v-487h-77v323q0 12 1.5 35.5t1.5 29.5h-2q-11 -27 -34 -57l-248 -331h-70z" />
<glyph unicode="&#x439;" horiz-adv-x="587" d="M79 0v487h77v-323q0 -29 -3 -65h2q16 33 35 56l248 332h69v-487h-77v323q0 12 1.5 35.5t1.5 29.5h-2q-11 -27 -34 -57l-248 -331h-70zM139 703h65q0 -43 22.5 -66.5t63.5 -23.5q40 0 62 23.5t22 66.5h65q4 -59 -37 -98t-112 -39q-72 0 -113.5 39t-37.5 98z" />
<glyph unicode="&#x43a;" horiz-adv-x="536" d="M79 0v487h85v-145q0 -26 -5 -56h68q35 0 60 12t45.5 42.5t33.5 59.5t34 87h88q-12 -33 -17.5 -46.5t-16 -39.5t-16.5 -36.5t-16 -29.5t-18 -27t-20 -19.5t-23.5 -17t-26.5 -10t-32 -6.5v-3q27 -2 48 -9t39 -24t30 -32t28 -49.5t25.5 -59.5t29.5 -78h-89q-17 44 -24 61.5 t-20.5 48.5t-21.5 42t-21.5 28.5t-26 23t-29.5 11t-38 5.5h-5h-67q4 -32 4 -47v-173h-85z" />
<glyph unicode="&#x43b;" horiz-adv-x="562" d="M19 60q39 9 57 24.5t29 43.5q24 61 43 245q7 58 37 86t90 28h207v-487h-85v420h-106q-31 0 -44.5 -13.5t-18.5 -47.5q-24 -194 -47 -256q-37 -107 -153 -108z" />
<glyph unicode="&#x43c;" horiz-adv-x="748" d="M69 0l20 455q0 32 33 32h88q25 0 33 -28l101 -280q10 -28 21 -70h16q14 49 21 70l101 280q9 28 34 28h89q32 0 32 -32l21 -455h-79l-19 422h-17l-124 -341q-9 -28 -34 -28h-66q-25 0 -34 28l-124 341h-17l-18 -422h-78z" />
<glyph unicode="&#x43d;" horiz-adv-x="582" d="M79 0v487h84v-196h256v196h84v-487h-84v226h-256v-226h-84z" />
<glyph unicode="&#x43e;" horiz-adv-x="571" d="M56 243q0 140 52 198t178 58q125 0 177 -58t52 -198t-52 -198t-177 -58q-126 0 -178 58t-52 198zM145 243q0 -106 30 -145t111 -39q80 0 110 39t30 145t-30 145t-110 39q-81 0 -111 -39t-30 -145z" />
<glyph unicode="&#x43f;" horiz-adv-x="575" d="M79 0v487h417v-487h-84v418h-250v-418h-83z" />
<glyph unicode="&#x440;" horiz-adv-x="583" d="M80 -201v688h69l7 -78q40 42 94.5 66t107.5 24q88 0 128 -64t40 -194q0 -138 -44 -195.5t-140 -57.5q-98 0 -180 50q4 -42 2 -98v-141h-84zM164 92q102 -30 156 -30q66 0 92 37t26 142q0 102 -24.5 143t-82.5 41q-67 0 -167 -75v-258z" />
<glyph unicode="&#x441;" horiz-adv-x="492" d="M56 244q0 140 52.5 197.5t178.5 57.5q96 0 157 -23l-11 -55q-66 6 -132 6q-87 0 -121.5 -39t-34.5 -144q0 -106 34 -145t122 -39q81 0 144 10l8 -57q-71 -25 -166 -25q-127 0 -179 57.5t-52 198.5z" />
<glyph unicode="&#x442;" horiz-adv-x="490" d="M26 417v70h438v-70h-176v-417h-85v417h-177z" />
<glyph unicode="&#x443;" horiz-adv-x="532" d="M20 487h91l129 -363q11 -33 18 -59h14q7 20 20 59l128 363h91l-194 -514q-39 -102 -92 -142q-64 -48 -181 -32l8 59q79 -4 117 22q41 29 68 99l9 21h-19q-23 0 -31 22z" />
<glyph unicode="&#x444;" horiz-adv-x="719" d="M55 243q0 131 61 190t204 65v202h79v-202q143 -6 204 -65t61 -190q0 -130 -61 -189t-204 -65v-190h-79v190q-143 6 -204 65t-61 189zM137 243q0 -97 41 -137t145 -45v366q-104 -5 -145 -45.5t-41 -138.5zM396 61q103 5 144 45t41 137t-41 138t-144 46v-366z" />
<glyph unicode="&#x445;" horiz-adv-x="531" d="M24 0l163 251l-150 236h92l125 -201h23l126 201h92l-151 -236l163 -251h-93l-138 220h-20l-139 -220h-93z" />
<glyph unicode="&#x446;" horiz-adv-x="594" d="M80 0v487h83v-419h242v419h84v-419h67v-212h-56l-9 144h-411z" />
<glyph unicode="&#x447;" horiz-adv-x="532" d="M55 276v211h84v-183q0 -36 15 -50.5t51 -14.5q81 0 162 34v214h84v-487h-84v205q-100 -36 -190 -36q-122 0 -122 107z" />
<glyph unicode="&#x448;" horiz-adv-x="806" d="M79 0v487h83v-419h202v419h77v-419h203v419h82v-487h-647z" />
<glyph unicode="&#x449;" horiz-adv-x="831" d="M80 0v487h82v-419h202v419h77v-419h204v419h82v-419h67v-212h-57l-8 144h-649z" />
<glyph unicode="&#x44a;" horiz-adv-x="632" d="M26 419v68h254v-189h113q112 0 154 -33t42 -119q0 -87 -41.5 -119.5t-141.5 -32.5q-132 0 -209 6v419h-171zM280 62l113 -1q62 0 85.5 17.5t23.5 70.5q0 49 -22.5 67.5t-86.5 18.5h-113v-173z" />
<glyph unicode="&#x44b;" horiz-adv-x="721" d="M79 0v487h83v-189h115q108 0 149 -33t41 -119q0 -87 -40 -119.5t-137 -32.5q-131 0 -208 6h-3zM162 62l115 -1q59 0 81.5 17.5t22.5 70.5q0 49 -22 67.5t-82 18.5h-115v-173zM556 0v487h86v-487h-86z" />
<glyph unicode="&#x44c;" horiz-adv-x="516" d="M79 0v487h83v-189h115q112 0 154 -33t42 -119q0 -87 -41.5 -119.5t-141.5 -32.5q-131 0 -208 6h-3zM162 62l115 -1q62 0 85.5 17.5t23.5 70.5q0 49 -22.5 67.5t-86.5 18.5h-115v-173z" />
<glyph unicode="&#x44d;" horiz-adv-x="506" d="M41 9l9 60q84 -7 162 -7q82 0 115 32.5t37 121.5h-248v64h247q-5 81 -39 111.5t-112 30.5q-70 0 -157 -5l-9 59q61 17 166 17q132 0 185 -55.5t53 -196.5q0 -139 -53 -195t-185 -56q-104 0 -171 19z" />
<glyph unicode="&#x44e;" horiz-adv-x="795" d="M80 0v487h84v-203h125q6 122 54.5 168.5t164.5 46.5q129 0 180 -54.5t51 -200.5q0 -144 -51 -198.5t-180 -54.5q-118 0 -166.5 49t-52.5 178h-125v-218h-84zM370 245q0 -104 29 -143t108 -39q81 0 112 39t32 143q-1 105 -32 143.5t-112 38.5q-79 0 -108 -38.5t-29 -143.5 z" />
<glyph unicode="&#x44f;" horiz-adv-x="543" d="M40 0l44 146q17 54 95 62v4q-59 8 -85 41.5t-26 94.5q0 72 40.5 108t140.5 36q143 0 215 -7v-485h-83v180h-131q-71 0 -85 -50l-37 -130h-88zM151 336q0 -51 21.5 -71.5t81.5 -20.5h127v179q-15 0 -58.5 0.5t-71.5 0.5q-59 0 -79.5 -19.5t-20.5 -68.5z" />
<glyph unicode="&#x451;" horiz-adv-x="540" d="M56 245q0 141 52 197.5t171 56.5q109 0 159 -39.5t51 -119.5q0 -138 -116 -138h-227q7 -84 41 -113t112 -29q84 0 170 12l8 -57q-64 -27 -189 -27q-126 0 -179 58.5t-53 198.5zM145 268h206q54 0 52 72q0 47 -27 67t-93 20q-77 0 -107 -34t-31 -125zM155 611v55 q0 24 23 24h29q23 0 23 -24v-55q0 -24 -23 -24h-29q-23 0 -23 24zM332 611v55q0 24 24 24h28q24 0 24 -24v-55q0 -24 -24 -24h-28q-24 0 -24 24z" />
<glyph unicode="&#x452;" horiz-adv-x="585" d="M27 494v49h75v157h86v-157h186v-49h-186v-84q0 -44 -5 -86q112 78 214 78q133 0 133 -134v-268h-85v245q0 44 -19.5 62.5t-65.5 18.5q-67 0 -173 -65v-261h-85v494h-75z" />
<glyph unicode="&#x453;" horiz-adv-x="462" d="M77 0v383q0 106 108 106q175 0 255 -8l-3 -60h-217q-31 0 -45 -14.5t-14 -45.5v-361h-84zM202 587l172 147l49 -65l-192 -121z" />
<glyph unicode="&#x454;" horiz-adv-x="507" d="M56 241q0 141 53.5 196.5t185.5 55.5q105 0 165 -17l-8 -59q-87 5 -157 5q-78 0 -112 -30.5t-39 -111.5h248v-64h-249q4 -88 37 -121t115 -33q78 0 162 7l8 -60q-65 -19 -170 -19q-132 0 -185.5 56t-53.5 195z" />
<glyph unicode="&#x455;" horiz-adv-x="511" d="M52 365q0 81 42.5 108.5t147.5 25.5q116 -2 204 -15l-6 -62q-155 5 -186 5q-74 1 -97 -9t-23 -53q0 -35 15.5 -48t55.5 -22l142 -32q60 -15 86.5 -44.5t26.5 -89.5q0 -85 -47 -112.5t-161 -27.5q-102 0 -190 14l6 62q84 -5 167 -4q85 0 114 13t29 55q0 33 -17.5 45.5 t-58.5 22.5l-140 32q-60 14 -85 45t-25 91z" />
<glyph unicode="&#x456;" horiz-adv-x="251" d="M80 611v57q0 26 26 26h40q25 0 25 -26v-57q0 -26 -25 -26h-40q-26 0 -26 26zM83 0v487h85v-487h-85z" />
<glyph unicode="&#x457;" horiz-adv-x="251" d="M-1 611v55q0 24 23 24h29q23 0 23 -24v-55q0 -24 -23 -24h-29q-23 0 -23 24zM83 0v487h85v-487h-85zM176 611v55q0 24 24 24h28q24 0 24 -24v-55q0 -24 -24 -24h-28q-24 0 -24 24z" />
<glyph unicode="&#x458;" horiz-adv-x="252" d="M28 -166q55 68 55 154v499h86v-499q0 -58 -25 -108t-69 -83zM81 611v57q0 26 25 26h40q26 0 26 -26v-57q0 -26 -26 -26h-40q-25 0 -25 26z" />
<glyph unicode="&#x459;" horiz-adv-x="803" d="M28 55q57 22 79 64q21 40 29.5 87.5t23.5 182.5q9 98 112 98h186v-186h109q110 0 151 -33.5t41 -120.5q0 -90 -42 -121.5t-144 -31.5q-122 0 -196 6v422h-82q-28 0 -41 -11t-16 -37q-13 -120 -23 -175.5t-30 -100.5q-40 -101 -150 -101zM458 62l102 -1q65 0 89 17t24 72 q0 50 -22.5 69.5t-83.5 19.5h-109v-177z" />
<glyph unicode="&#x45a;" horiz-adv-x="810" d="M80 0v487h78v-188h226v188h80v-187h111q110 0 151 -33t41 -120q0 -88 -40.5 -120.5t-138.5 -32.5q-128 0 -204 6v238h-226v-238h-78zM464 62l111 -1q60 0 83 18t23 71q0 50 -22 69t-84 19h-111v-176z" />
<glyph unicode="&#x45b;" horiz-adv-x="585" d="M27 494v49h75v157h86v-157h186v-49h-186v-84q0 -44 -5 -86q112 78 214 78q131 0 133 -134v-280q0 -58 -25 -108t-69 -83l-47 37q56 69 56 154v257q0 44 -19.5 62.5t-65.5 18.5q-67 0 -173 -65v-261h-85v494h-75z" />
<glyph unicode="&#x45c;" horiz-adv-x="536" d="M79 0v487h85v-145q0 -26 -5 -56h68q35 0 60 12t45.5 42.5t33.5 59.5t34 87h88q-12 -33 -17.5 -46.5t-16 -39.5t-16.5 -36.5t-16 -29.5t-18 -27t-20 -19.5t-23.5 -17t-26.5 -10t-32 -6.5v-3q27 -2 48 -9t39 -24t30 -32t28 -49.5t25.5 -59.5t29.5 -78h-89q-17 44 -24 61.5 t-20.5 48.5t-21.5 42t-21.5 28.5t-26 23t-29.5 11t-38 5.5h-5h-67q4 -32 4 -47v-173h-85zM214 587l172 147l49 -65l-192 -121z" />
<glyph unicode="&#x45d;" horiz-adv-x="587" d="M79 0v487h77v-323q0 -29 -3 -65h2q16 33 35 56l248 332h69v-487h-77v323q0 12 1.5 35.5t1.5 29.5h-2q-11 -27 -34 -57l-248 -331h-70zM118 669l49 65l172 -147l-29 -39z" />
<glyph unicode="&#x45e;" horiz-adv-x="532" d="M20 487h91l129 -363q11 -33 18 -59h14q7 20 20 59l128 363h91l-194 -514q-39 -102 -92 -142q-64 -48 -181 -32l8 59q79 -4 117 22q41 29 68 99l9 21h-19q-23 0 -31 22zM115 703h65q0 -43 22.5 -66.5t63.5 -23.5q40 0 62 23.5t22 66.5h65q4 -59 -37 -98t-112 -39 q-72 0 -113.5 39t-37.5 98z" />
<glyph unicode="&#x45f;" horiz-adv-x="580" d="M80 0v487h85v-419h250v419h85v-487h-175l-7 -165h-57l-8 165h-173z" />
<glyph unicode="&#x490;" horiz-adv-x="523" d="M85 0v561q0 57 35.5 93.5t90.5 36.5q151 0 224 -6l10 157h57v-165l-4 -61h-258q-36 0 -52 -16.5t-16 -54.5v-545h-87z" />
<glyph unicode="&#x491;" horiz-adv-x="464" d="M77 0v383q0 106 108 106q129 0 191 -3l9 147h57v-152l-4 -60h-218q-30 1 -44 -13.5t-14 -46.5v-361h-85z" />
<glyph unicode="&#x4b0;" horiz-adv-x="580" d="M18 690h93l145 -291q5 -10 32 -78h7q19 54 31 77l145 292h92l-211 -415h132v-52h-149v-223h-88v223h-150v52h133z" />
<glyph unicode="&#x4b1;" horiz-adv-x="584" d="M19 487h93l145 -289q8 -17 31 -77h8q23 60 31 77l145 289h93l-212 -413h133v-54h-150v-221h-87v221h-151v54h134z" />
<glyph unicode="&#x4b6;" horiz-adv-x="653" d="M60 407v283h89v-265q-1 -51 22.5 -74t76.5 -23q96 0 203 53v309h89v-629h81v-212h-60l-9 151h-101v311q-114 -60 -232 -60q-81 0 -120 38.5t-39 117.5z" />
<glyph unicode="&#x4b7;" horiz-adv-x="556" d="M55 276v211h84v-183q0 -36 15 -50.5t51 -14.5q81 0 162 34v214h84v-419h68v-212h-57l-8 144h-87v205q-100 -36 -190 -36q-122 0 -122 107z" />
<glyph unicode="&#x4ba;" horiz-adv-x="626" d="M87 0v690h88v-310q112 59 233 59q80 0 119 -38.5t39 -117.5v-283h-88v265q1 51 -22.5 74t-77.5 23q-98 0 -203 -53v-309h-88z" />
<glyph unicode="&#x4c0;" horiz-adv-x="263" d="M88 0v690h87v-690h-87z" />
<glyph unicode="&#x1e80;" horiz-adv-x="948" d="M31 690h93l108 -538q2 -9 14 -85h23q8 47 16 85l107 509q5 29 34 29h96q27 0 34 -29l107 -509q10 -49 14 -85h25q9 60 13 84l109 539h93l-140 -664q-7 -26 -35 -26h-100q-29 0 -34 27l-108 519q-6 26 -16 78h-21l-15 -78l-107 -519q-7 -27 -35 -27h-101q-13 0 -22.5 7.5 t-11.5 18.5zM303 848l49 65l172 -147l-29 -39z" />
<glyph unicode="&#x1e81;" horiz-adv-x="824" d="M25 487h88l101 -359q9 -31 16 -73h13l18 73l81 332q5 27 32 27h77q25 0 32 -28l80 -331q2 -11 8 -35.5t9 -37.5h13q1 5 6.5 31.5t10.5 41.5l101 359h88l-142 -463q-6 -24 -33 -24h-77q-12 0 -21.5 7.5t-11.5 19.5l-80 331q-3 14 -8 39.5t-8 37.5h-12l-17 -77l-79 -331 q-7 -27 -34 -27h-76q-27 0 -33 24zM241 669l49 65l172 -147l-29 -39z" />
<glyph unicode="&#x1e82;" horiz-adv-x="948" d="M31 690h93l108 -538q2 -9 14 -85h23q8 47 16 85l107 509q5 29 34 29h96q27 0 34 -29l107 -509q10 -49 14 -85h25q9 60 13 84l109 539h93l-140 -664q-7 -26 -35 -26h-100q-29 0 -34 27l-108 519q-6 26 -16 78h-21l-15 -78l-107 -519q-7 -27 -35 -27h-101q-13 0 -22.5 7.5 t-11.5 18.5zM409 766l173 147l48 -65l-191 -121z" />
<glyph unicode="&#x1e83;" horiz-adv-x="824" d="M25 487h88l101 -359q9 -31 16 -73h13l18 73l81 332q5 27 32 27h77q25 0 32 -28l80 -331q2 -11 8 -35.5t9 -37.5h13q1 5 6.5 31.5t10.5 41.5l101 359h88l-142 -463q-6 -24 -33 -24h-77q-12 0 -21.5 7.5t-11.5 19.5l-80 331q-3 14 -8 39.5t-8 37.5h-12l-17 -77l-79 -331 q-7 -27 -34 -27h-76q-27 0 -33 24zM347 587l172 147l49 -65l-192 -121z" />
<glyph unicode="&#x1e84;" horiz-adv-x="948" d="M31 690h93l108 -538q2 -9 14 -85h23q8 47 16 85l107 509q5 29 34 29h96q27 0 34 -29l107 -509q10 -49 14 -85h25q9 60 13 84l109 539h93l-140 -664q-7 -26 -35 -26h-100q-29 0 -34 27l-108 519q-6 26 -16 78h-21l-15 -78l-107 -519q-7 -27 -35 -27h-101q-13 0 -22.5 7.5 t-11.5 18.5zM348 790v55q0 24 23 24h29q23 0 23 -24v-55q0 -24 -23 -24h-29q-23 0 -23 24zM525 790v55q0 24 24 24h28q24 0 24 -24v-55q0 -24 -24 -24h-28q-24 0 -24 24z" />
<glyph unicode="&#x1e85;" horiz-adv-x="824" d="M25 487h88l101 -359q9 -31 16 -73h13l18 73l81 332q5 27 32 27h77q25 0 32 -28l80 -331q2 -11 8 -35.5t9 -37.5h13q1 5 6.5 31.5t10.5 41.5l101 359h88l-142 -463q-6 -24 -33 -24h-77q-12 0 -21.5 7.5t-11.5 19.5l-80 331q-3 14 -8 39.5t-8 37.5h-12l-17 -77l-79 -331 q-7 -27 -34 -27h-76q-27 0 -33 24zM286 611v55q0 24 23 24h29q23 0 23 -24v-55q0 -24 -23 -24h-29q-23 0 -23 24zM463 611v55q0 24 24 24h28q24 0 24 -24v-55q0 -24 -24 -24h-28q-24 0 -24 24z" />
<glyph unicode="&#x1ef2;" horiz-adv-x="569" d="M11 690h94l145 -291q12 -24 31 -78h7q16 44 31 77l145 292h93l-229 -448v-242h-88v243zM113 848l48 66l173 -147l-30 -39z" />
<glyph unicode="&#x1ef3;" horiz-adv-x="529" d="M18 487h91l129 -363q14 -41 18 -59h14q8 20 21 59l127 363h92l-195 -514q-64 -172 -213 -179l-8 56q57 18 89.5 49.5t52.5 79.5l8 21h-19q-24 0 -30 22zM96 669l48 65l173 -147l-30 -39z" />
<glyph unicode="&#x2000;" horiz-adv-x="467" />
<glyph unicode="&#x2001;" horiz-adv-x="935" />
<glyph unicode="&#x2002;" horiz-adv-x="467" />
<glyph unicode="&#x2003;" horiz-adv-x="935" />
<glyph unicode="&#x2004;" horiz-adv-x="311" />
<glyph unicode="&#x2005;" horiz-adv-x="233" />
<glyph unicode="&#x2006;" horiz-adv-x="155" />
<glyph unicode="&#x2007;" horiz-adv-x="155" />
<glyph unicode="&#x2008;" horiz-adv-x="116" />
<glyph unicode="&#x2009;" horiz-adv-x="187" />
<glyph unicode="&#x200a;" horiz-adv-x="51" />
<glyph unicode="&#x2010;" horiz-adv-x="449" d="M72 220v65h305v-65h-305z" />
<glyph unicode="&#x2011;" horiz-adv-x="449" d="M72 220v65h305v-65h-305z" />
<glyph unicode="&#x2012;" horiz-adv-x="449" d="M72 220v65h305v-65h-305z" />
<glyph unicode="&#x2013;" horiz-adv-x="592" d="M72 220v65h448v-65h-448z" />
<glyph unicode="&#x2014;" horiz-adv-x="896" d="M72 220v65h752v-65h-752z" />
<glyph unicode="&#x2018;" horiz-adv-x="217" d="M65 526v60q1 77 35 144l40 -11q-10 -54 -10 -112q25 0 23 -26v-55q-1 -30 -32 -30h-25q-17 0 -24 6.5t-7 23.5z" />
<glyph unicode="&#x2019;" horiz-adv-x="214" d="M63 638v55q1 30 32 30h25q17 0 24 -6.5t7 -23.5v-60q-1 -78 -35 -143l-40 10q10 54 10 112q-25 0 -23 26z" />
<glyph unicode="&#x201a;" horiz-adv-x="228" d="M70 26v55q1 30 33 30h25q17 0 24 -6.5t7 -23.5v-59q-1 -77 -35 -144l-41 11q10 54 10 112q-25 0 -23 25z" />
<glyph unicode="&#x201c;" horiz-adv-x="369" d="M65 526v60q1 77 35 144l40 -11q-10 -54 -10 -112q25 0 23 -26v-55q-1 -30 -32 -30h-25q-17 0 -24 6.5t-7 23.5zM218 526v60q1 79 34 144l41 -11q-10 -54 -10 -112q25 0 23 -26v-55q-1 -30 -33 -30h-24q-17 0 -24 6.5t-7 23.5z" />
<glyph unicode="&#x201d;" horiz-adv-x="367" d="M63 638v55q1 30 32 30h25q17 0 24 -6.5t7 -23.5v-60q-1 -78 -35 -143l-40 10q10 54 10 112q-25 0 -23 26zM215 638v55q1 30 33 30h25q17 0 23.5 -6.5t6.5 -23.5v-60q-2 -80 -34 -143l-40 10q10 63 10 112q-24 0 -24 26z" />
<glyph unicode="&#x201e;" horiz-adv-x="381" d="M70 26v55q1 30 32 30h25q17 0 24 -6.5t7 -23.5v-59q-1 -77 -35 -144l-40 11q10 54 10 112q-25 0 -23 25zM222 26v55q1 16 8.5 23t24.5 7h25q17 0 23.5 -6.5t6.5 -23.5v-59q-1 -79 -34 -144l-40 11q10 54 10 112q-24 0 -24 25z" />
<glyph unicode="&#x2020;" horiz-adv-x="453" d="M43 412v75h130v-65zM188 691h77l-3 -209v-592h-70v592zM280 422v65h131v-75z" />
<glyph unicode="&#x2021;" horiz-adv-x="491" d="M61 94v75l131 -10v-65h-131zM61 412v75h131v-65zM206 -110l4 205v390l-4 206h78l-4 -206v-390l4 -205h-78zM299 94v65l130 10v-75h-130zM299 422v65h130v-75z" />
<glyph unicode="&#x2022;" horiz-adv-x="363" d="M91 263v12q0 47 18.5 65t67.5 18h12q47 0 65 -18t18 -65v-12q0 -49 -18 -67.5t-65 -18.5h-12q-49 0 -67.5 18.5t-18.5 67.5z" />
<glyph unicode="&#x2026;" horiz-adv-x="845" d="M66 32v54q0 18 7 25t24 7h29q17 0 24 -7t7 -25v-54q0 -18 -7 -25t-24 -7h-29q-17 0 -24 7t-7 25zM374 32v54q0 18 7 25t25 7h28q17 0 24 -7t7 -25v-54q0 -18 -7 -25t-24 -7h-28q-18 0 -25 7t-7 25zM682 32v54q0 18 7 25t25 7h28q17 0 24.5 -7t7.5 -25v-54q0 -18 -7.5 -25 t-24.5 -7h-28q-18 0 -25 7t-7 25z" />
<glyph unicode="&#x202f;" horiz-adv-x="187" />
<glyph unicode="&#x2030;" horiz-adv-x="1267" d="M47 498q0 111 36 158t124 47q89 0 125 -47t36 -158t-36 -158t-125 -47q-88 0 -124 47t-36 158zM112 498q0 -85 20.5 -118t74.5 -33t74.5 33t20.5 118t-20.5 118t-74.5 33t-74.5 -33t-20.5 -118zM192 0l447 690h60l-447 -690h-60zM526 196q0 110 36 157t124 47t124 -47 t36 -157q0 -111 -36 -158t-124 -47t-124 47t-36 158zM591 196q-1 -85 19.5 -118.5t74.5 -33.5t75 33.5t21 118.5q0 84 -21 117t-75 33t-74.5 -32.5t-19.5 -117.5zM897 196q0 110 36 157t124 47q89 0 125 -47t36 -157q0 -111 -36 -158t-125 -47q-88 0 -124 47t-36 158z M963 196q0 -85 20 -118.5t74 -33.5t74.5 33t20.5 119q0 85 -20.5 117.5t-74.5 32.5t-74 -32.5t-20 -117.5z" />
<glyph unicode="&#x2039;" horiz-adv-x="285" d="M36 241v20l160 198l45 -30l-126 -178l127 -182l-45 -30z" />
<glyph unicode="&#x203a;" horiz-adv-x="287" d="M43 69l127 182l-126 178l44 30l161 -198v-20l-162 -202z" />
<glyph unicode="&#x2044;" horiz-adv-x="160" d="M-174 0l447 690h61l-447 -690h-61z" />
<glyph unicode="&#x205f;" horiz-adv-x="233" />
<glyph unicode="&#x20ac;" horiz-adv-x="639" d="M53 261v53h82v31q0 32 1 47h-83v53h87q15 130 78.5 193.5t191.5 63.5q94 0 166 -20l-10 -68q-76 13 -161 9q-78 -3 -119 -46t-54 -132h255l-7 -53h-253q0 -8 -0.5 -24t-0.5 -24l1 -30h220l-7 -53h-210q11 -98 52 -145t123 -49q96 -3 173 12l9 -68q-77 -23 -177 -23 q-131 0 -195 67t-77 206h-85z" />
<glyph unicode="&#x2122;" horiz-adv-x="964" d="M67 645v51h324v-51h-131v-329h-62v329h-131zM440 316l16 356q2 24 24 24h63q19 0 25 -20l76 -220q3 -10 8.5 -29.5t6.5 -23.5h11q3 9 8 27t8 27l75 219q6 20 24 20h66q22 0 24 -24l15 -356h-57l-16 333h-11l-92 -268q-6 -20 -26 -20h-47q-18 0 -25 20l-92 268h-12 l-15 -333h-57z" />
<glyph unicode="&#x2202;" horiz-adv-x="572" d="M54 226q5 101 58.5 162.5t150.5 60.5q104 -2 162 -78q6 160 -54 213.5t-240 53.5v65q112 1 180.5 -12t118.5 -52.5t68.5 -112t12.5 -189.5q-9 -172 -64 -260.5t-180 -88.5q-61 0 -105 20t-67 55t-33 75.5t-8 87.5zM139 226q-3 -73 28.5 -117.5t100.5 -44.5q43 0 72 18.5 t45.5 56t24.5 78.5t13 102q-64 58 -143 58q-68 0 -103 -40t-38 -111z" />
<glyph unicode="&#x2205;" horiz-adv-x="685" d="M50 341q0 121 86 206.5t207 85.5t206.5 -85.5t85.5 -206.5t-85.5 -207t-206.5 -86t-207 86t-86 207zM221 534l3 -45q60 9 119 9q66 0 66 -46q0 -21 -15 -44.5t-33.5 -42.5t-33.5 -52t-15 -72h54q0 35 14.5 64.5t32.5 46.5t32.5 43.5t14.5 56.5q0 93 -117 93 q-51 0 -122 -11zM313 126q0 -7 7 -7h39q8 0 8 7v37q0 8 -8 8h-39q-7 0 -7 -8v-37z" />
<glyph unicode="&#x220f;" horiz-adv-x="722" d="M39 618v72h644v-72h-104v-721h-84v721h-268v-721h-84v721h-104z" />
<glyph unicode="&#x2211;" horiz-adv-x="590" d="M49 -38l180 386l-168 270v72h467v-72h-370l166 -270l-180 -386h394v-71h-489v71z" />
<glyph unicode="&#x2212;" horiz-adv-x="585" d="M74 263v64h438v-64h-438z" />
<glyph unicode="&#x221a;" horiz-adv-x="566" d="M34 487h72l110 -429h13l240 818h73l-257 -868q-3 -8 -13 -8h-99q-11 0 -13 8z" />
<glyph unicode="&#x221e;" horiz-adv-x="780" d="M61 311q0 67 39.5 101t103.5 34q99 0 187 -97q92 97 192 97q59 0 98 -34.5t39 -100.5q0 -69 -42.5 -107.5t-107.5 -38.5q-95 0 -178 93q-91 -93 -184 -93q-63 0 -105 38.5t-42 107.5zM134 309q0 -81 88 -81q40 0 69 19t62 57q-33 40 -62 59.5t-75 19.5q-82 0 -82 -74z M430 301q57 -73 129 -73q41 0 64 20.5t23 60.5q0 74 -79 74q-31 0 -58 -13.5t-42 -28t-37 -40.5z" />
<glyph unicode="&#x222b;" horiz-adv-x="371" d="M34 -218l5 61h64q38 0 53.5 19t12.5 65l-43 654q-4 65 25 99t88 34q64 0 99 -4l-6 -61h-65q-38 0 -53 -18t-13 -64l45 -656q4 -68 -23.5 -100.5t-93.5 -32.5q-67 0 -95 4z" />
<glyph unicode="&#x2248;" horiz-adv-x="587" d="M77 136q-9 63 18 92.5t78 27.5q35 -1 117.5 -29t119.5 -30q24 -1 33.5 10t9.5 43h58q8 -59 -16 -88.5t-82 -28.5q-39 1 -121 29.5t-115 29.5q-24 0 -33.5 -11.5t-9.5 -44.5h-57zM77 327q-9 63 18 92.5t78 27.5q35 -1 117.5 -29t119.5 -29q25 -1 34 9.5t9 43.5h58 q8 -60 -16 -89.5t-82 -28.5q-39 1 -121 29.5t-115 29.5q-24 1 -33.5 -11t-9.5 -45h-57z" />
<glyph unicode="&#x2260;" horiz-adv-x="616" d="M94 155v64h143l90 148h-233v63h271l66 109l27 -14l-58 -95h133v-63h-171l-90 -148h261v-64h-300l-74 -123l-27 14l67 109h-105z" />
<glyph unicode="&#x2264;" horiz-adv-x="567" d="M69 79v63h428v-63h-428zM79 327v68l410 140v-68l-335 -106l335 -97v-68z" />
<glyph unicode="&#x2265;" horiz-adv-x="567" d="M70 79v63h428v-63h-428zM79 196v68l334 97l-334 106v68l409 -140v-68z" />
<glyph unicode="&#x25ca;" horiz-adv-x="576" d="M36 338q-5 8 0 16l245 338q7 11 16 0l243 -338q5 -8 0 -16l-243 -340q-9 -11 -16 0zM106 346l183 -263l182 263l-182 261z" />
<glyph unicode="&#x25fc;" horiz-adv-x="485" d="M0 0v485h485v-485h-485z" />
<glyph unicode="&#xfb01;" horiz-adv-x="607" d="M28 420v62l88 4v78q0 76 33 114.5t109 38.5q66 0 114 -7v-63h-84q-48 0 -67.5 -20.5t-19.5 -71.5v-68h323v-487h-84v420h-239v-420h-85v420h-88zM436 611v57q0 26 25 26h40q26 0 26 -26v-57q0 -26 -26 -26h-40q-25 0 -25 26z" />
<glyph unicode="&#xfb02;" horiz-adv-x="669" d="M28 420v62l88 4v78q0 77 33 115.5t108 37.5q206 0 279 -12v-581q0 -66 66 -66h48l9 -54q-27 -13 -89 -13q-55 0 -87 30t-32 84v543h-164q-48 1 -67 -20t-19 -73v-68h146v-67h-146v-420h-85v420h-88z" />
<glyph horiz-adv-x="375" d="M38 695h65q0 -43 22.5 -66.5t63.5 -23.5q40 0 62 23.5t22 66.5h65q4 -59 -37 -98t-112 -39q-72 0 -113.5 39t-37.5 98z" />
</font>
</defs>
</svg>
